<svg width="129" height="129" viewBox="0 0 129 129" fill="none" xmlns="http://www.w3.org/2000/svg">
<path d="M89.4289 6.35603H82.0794L89.7226 14.689V18.656H73.9804V14.011H81.6225L73.9804 5.67803V1.70703H89.4289V6.35603ZM70.859 6.35603H63.5095L71.1526 14.689V18.656H55.4094V14.011H63.0526L55.4094 5.67803V1.70703H70.859V6.35603ZM52.4712 6.54603H44.5404V13.817H52.4712V18.656H38.9028V1.70703H52.4712V6.54603Z" fill="#131313"/>
<path d="M28.0954 117.206L20.0361 26.3929H108.588L100.522 117.191L64.2578 127.293L28.0954 117.206Z" fill="#1572B6"/>
<path d="M64.3135 119.572L93.6151 111.41L100.509 33.819H64.3135V119.572Z" fill="#33A9DC"/>
<path d="M64.3125 66.72H78.9817L79.996 55.315H64.3125V44.177H92.1112L91.8454 47.165L89.1212 77.857H64.3125V66.72Z" fill="white"/>
<path d="M64.3789 95.646L64.3301 95.66L51.984 92.31L51.1937 83.427H40.0669L41.6206 100.915L64.3282 107.248L64.3799 107.233V95.646H64.3789Z" fill="#EBEBEB"/>
<path d="M78.0401 77.386L76.7044 92.302L64.3403 95.655V107.243L87.0668 100.915L87.234 99.033L89.163 77.386H78.0401Z" fill="white"/>
<path d="M64.3514 44.177V55.314H37.5739L37.351 52.811L36.8463 47.165L36.5806 44.177H64.3514ZM64.3126 66.721V77.859H52.1227L51.9007 75.356L51.3951 69.709L51.1294 66.721H64.3126Z" fill="#EBEBEB"/>
</svg>
