<svg width="129" height="129" viewBox="0 0 129 129" fill="none" xmlns="http://www.w3.org/2000/svg">
<path fill-rule="evenodd" clip-rule="evenodd" d="M20.5452 97.4V89.3C20.5452 88.2 21.2419 87.4 22.3368 87.4H22.6354C23.7303 87.4 24.427 88.3 24.427 89.3V106.3C24.427 110.4 22.4363 113.7 18.8531 115.8C17.1611 116.8 15.3695 117.3 13.4783 117.3H12.6821C8.6012 117.3 5.3166 115.3 3.2264 111.7C2.23107 110 1.7334 108.2 1.7334 106.3V105.5C1.7334 101.4 3.72407 98.1 7.30727 96C8.99933 95 10.7909 94.5 12.6821 94.5H13.4783C16.1657 94.6 18.5545 95.6 20.5452 97.4ZM5.51567 105.9C5.51567 108.9 7.00867 111.1 9.59653 112.6C10.6914 113.2 11.7863 113.5 12.9807 113.5C15.8671 113.5 18.0569 112.1 19.5499 109.6C20.2466 108.4 20.5452 107.2 20.5452 105.8C20.5452 103.2 19.3508 101.2 17.2606 99.7C15.9667 98.8 14.5732 98.3 13.0802 98.3C9.89513 98.3 7.60587 99.9 6.2124 102.8C5.71473 103.8 5.51567 104.9 5.51567 105.9ZM37.5654 94.6H38.0631C42.4425 94.6 45.8267 96.7 47.9169 100.6C48.8127 102.1 49.2108 103.8 49.2108 105.6V106.4C49.2108 110.5 47.2201 113.8 43.6369 115.9C41.9449 116.9 40.1533 117.4 38.2621 117.4H37.4659C33.385 117.4 30.1004 115.4 28.0102 111.8C27.0149 110.1 26.5172 108.3 26.5172 106.4V105.6C26.5172 101.5 28.6074 98.2 32.0911 96.1C33.7831 95 35.6743 94.6 37.5654 94.6ZM30.399 105.9C30.399 108.8 31.7925 110.9 34.2808 112.4C35.4752 113.1 36.6696 113.4 38.0631 113.4C40.9495 113.4 43.0397 111.9 44.5327 109.5C45.2295 108.3 45.5281 107.1 45.5281 105.7C45.5281 103 44.2341 100.9 42.0444 99.4C40.85 98.6 39.4565 98.2 38.0631 98.2C34.878 98.2 32.5887 99.8 31.1953 102.7C30.5981 103.8 30.399 104.9 30.399 105.9ZM65.0366 98.7C64.4394 98.4 63.3446 98.3 62.7474 98.3C59.5623 98.2 57.273 100 55.8796 102.8C55.3819 103.8 55.1828 104.8 55.1828 105.9C55.1828 109.2 56.8749 111.5 59.7614 112.9C60.8562 113.4 62.1502 113.5 63.3446 113.5C64.3399 113.5 65.8329 112.9 66.7287 112.4L66.9278 112.3H67.724C68.6198 112.5 69.217 113 69.217 114V114.4C69.217 116.7 64.9371 117.3 63.3446 117.4C57.6712 117.8 53.3912 114.7 51.7987 109.2C51.5001 108.3 51.4006 107.3 51.4006 106.3V105.5C51.4006 101.4 53.4907 98.1 56.9744 96C58.6665 95 60.4581 94.5 62.3492 94.5H63.1455C65.1362 94.5 67.0273 95.1 68.7194 96.2L68.8189 96.3L68.9184 96.4C69.1175 96.7 69.217 97 69.217 97.4V97.8C69.217 98.8 68.5203 99.3 67.6245 99.5H67.3259C66.8282 99.5 65.5343 98.9 65.0366 98.7ZM77.3788 101.3C78.8718 99.8 80.3648 98.3 81.8578 96.9C82.2559 96.5 83.8484 94.8 84.4456 94.8H85.2419C86.1377 95 86.7349 95.5 86.7349 96.5V96.9C86.7349 97.5 86.0382 98.3 85.5405 98.7L82.8531 101.4L78.2746 106.1C80.2652 108.1 82.2559 110.1 84.147 112.1L85.7396 113.8C85.9386 114 86.2372 114.2 86.3368 114.5C86.5358 114.8 86.6354 115.1 86.6354 115.4V115.9C86.4363 116.8 85.8391 117.5 84.9433 117.5H84.6447C84.0475 117.5 83.3508 116.8 82.8531 116.4C81.9573 115.6 81.0615 114.7 80.2652 113.8L77.3788 110.9V115.5C77.3788 116.6 76.682 117.4 75.5872 117.4H75.2886C74.1937 117.4 73.497 116.5 73.497 115.5V89.4C73.497 88.3 74.1937 87.5 75.2886 87.5H75.5872C76.682 87.5 77.3788 88.3 77.3788 89.4V101.3ZM124.757 94.7H125.155C126.25 94.7 127.046 95.5 127.046 96.6C127.046 98.2 125.553 98.6 124.259 98.6C122.567 98.6 120.875 99.6 119.78 100.8C118.287 102.3 117.69 104.1 117.69 106.2V115.4C117.69 116.5 116.993 117.3 115.898 117.3H115.6C114.505 117.3 113.808 116.4 113.808 115.4V105.6C113.808 101.8 115.6 98.8 118.685 96.6C120.477 95.4 122.567 94.7 124.757 94.7ZM97.7831 113C99.1766 113.5 100.769 113.4 102.163 113.2C102.859 112.9 104.75 112.1 105.447 112.2H105.646C106.044 112.4 106.443 112.7 106.642 113.1C107.139 114.1 106.94 115.1 105.945 115.7L105.646 115.9C102.063 118 98.1812 117.7 94.598 115.7C92.906 114.8 91.612 113.4 90.6167 111.7L90.4176 111.3C88.1284 107.3 88.427 103 91.0148 99.2C91.9106 97.9 93.105 96.9 94.4985 96.1L94.9962 95.8C98.3803 93.8 102.063 94 105.547 95.7C107.438 96.6 108.931 98 110.026 99.8L110.225 100.1C111.021 101.4 110.026 102.6 109.03 103.4C107.836 104.3 106.642 105.4 105.547 106.4C102.859 108.6 100.271 110.8 97.7831 113ZM94.4985 110.7L102.959 103.4C103.954 102.6 104.95 101.7 105.945 100.8C105.149 99.8 103.855 99.1 102.859 98.7C100.67 97.9 98.4798 98.1 96.4892 99.3C93.9013 100.8 92.7069 103.3 92.8064 106.3C92.8064 107.5 93.2046 108.6 93.8018 109.7C94.0008 110.1 94.1999 110.4 94.4985 110.7ZM73.9946 34.2H85.2419V45.7H90.9153C93.5032 45.7 96.1906 45.2 98.6789 44.4C99.8733 44 101.267 43.4 102.461 42.7C100.869 40.6 100.072 38 99.8733 35.4C99.5747 31.9 100.271 27.3 102.66 24.6L103.855 23.2L105.248 24.3C108.831 27.2 111.718 31.1 112.315 35.7C116.595 34.4 121.572 34.7 125.354 36.9L126.847 37.8L126.051 39.4C122.866 45.6 116.197 47.6 109.727 47.2C99.9728 71.5 78.8718 83 53.1922 83C39.9542 83 27.8111 78 20.8438 66.2L20.7443 66L19.7489 63.9C17.3601 58.7 16.6634 53 17.1611 47.3L17.3601 45.6H26.9153V34.2H38.1626V22.9H60.5576V11.6H73.9946V34.2Z" fill="#3A4D54"/>
<path d="M110.324 38.4C111.121 32.5 106.741 27.9 103.954 25.7C100.869 29.3 100.371 38.9 105.248 42.9C102.461 45.3 96.7878 47.5999 90.8158 47.5999H18.9527C18.3555 53.7999 19.4504 59.5 21.9387 64.4L22.735 65.9C23.2327 66.8 23.8299 67.5999 24.4271 68.5C27.4131 68.7 30.1005 68.7999 32.5888 68.6999C37.4659 68.5999 41.4473 68 44.5328 67C45.0305 66.7999 45.4286 67.0999 45.6277 67.5C45.8267 68 45.5281 68.3999 45.13 68.5999C44.7319 68.6999 44.3337 68.9 43.8361 69C41.4473 69.7 38.8594 70.1 35.5748 70.3H34.9776C33.6837 70.4 32.2902 70.4 30.7972 70.4C29.2047 70.4 27.7117 70.4 25.9201 70.3C31.8921 77.1 41.2482 81.0999 52.9931 81.0999C77.8765 81.0999 98.9776 70 108.234 45.2C114.903 45.9 121.273 44.2 124.16 38.5C119.681 35.9 113.709 36.7 110.324 38.4Z" fill="#00AADA"/>
<path d="M110.325 38.4C111.121 32.5 106.742 27.9 103.955 25.7C100.869 29.3 100.371 38.9 105.249 42.9C102.462 45.3 96.7882 47.5999 90.8162 47.5999H23.1335C22.8349 57.0999 26.3185 64.2999 32.5891 68.5999C37.4663 68.5 41.4476 67.9 44.5331 66.9C45.0308 66.7 45.4289 67 45.628 67.4C45.8271 67.9 45.5285 68.2999 45.1303 68.5C44.7322 68.5999 44.3341 68.8 43.8364 68.9C41.4476 69.6 38.6607 70.1 35.3761 70.3L35.2765 70.1999C43.7369 74.5999 55.9795 74.5 70.1132 69.0999C85.8395 63 100.57 51.4 110.822 38.2C110.623 38.3 110.524 38.4 110.325 38.4Z" fill="#28B8EB"/>
<path d="M19.0522 55.1C19.4504 58.4 20.4457 61.5 21.9387 64.4L22.735 65.9C23.2327 66.8 23.8299 67.6 24.4271 68.5C27.4131 68.7 30.1005 68.8 32.5888 68.7C37.4659 68.6 41.4473 68 44.5328 67C45.0305 66.8 45.4286 67.1 45.6277 67.5C45.8267 68 45.5281 68.4 45.13 68.6C44.7319 68.7 44.3337 68.9 43.8361 69C41.4473 69.7 38.6603 70.2 35.3757 70.4H34.9776C33.6837 70.5 32.2902 70.5 30.8967 70.5C29.3042 70.5 27.7117 70.5 26.0196 70.4C31.9916 77.2 41.4473 81.2 53.1922 81.2C74.4924 81.2 93.0056 73.1 103.755 55.2H19.0522V55.1Z" fill="#028BB8"/>
<path d="M23.8301 55.1C25.124 60.9 28.11 65.5 32.589 68.6C37.4661 68.5 41.4475 67.9 44.533 66.9C45.0307 66.7 45.4288 67 45.6279 67.4C45.827 67.9 45.5284 68.3 45.1302 68.5C44.7321 68.6 44.334 68.8 43.8363 68.9C41.4475 69.6 38.6605 70.1 35.2764 70.3C43.7367 74.7 55.9794 74.6 70.0136 69.2C78.4739 65.9 86.7352 61 94.1006 55.1H23.8301Z" fill="#019BC6"/>
<path fill-rule="evenodd" clip-rule="evenodd" d="M28.707 36H38.4613V45.8H28.707V36ZM29.5033 36.9001H30.2996V45H29.5033V36.9001ZM30.9963 36.9001H31.7926V45H30.9963V36.9001ZM32.4893 36.9001H33.2856V45H32.4893V36.9001ZM33.8828 36.9001H34.679V45H33.8828V36.9001ZM35.3758 36.9001H36.172V45H35.3758V36.9001ZM36.8688 36.9001H37.665V45H36.8688V36.9001ZM39.9543 24.8H49.7086V34.5H39.9543V24.8ZM40.7506 25.6H41.5468V33.7001H40.7506V25.6ZM42.2436 25.6H43.0398V33.7001H42.2436V25.6ZM43.637 25.6H44.4333V33.7001H43.637V25.6ZM45.13 25.6H45.9263V33.7001H45.13V25.6ZM46.623 25.6H47.4193V33.7001H46.623V25.6ZM48.116 25.6H48.9123V33.7001H48.116V25.6Z" fill="#00ACD3"/>
<path fill-rule="evenodd" clip-rule="evenodd" d="M39.9546 36H49.7089V45.8H39.9546V36ZM40.7509 36.9H41.5471V45H40.7509V36.9ZM42.2439 36.9H43.0401V45H42.2439V36.9ZM43.6373 36.9H44.4336V45H43.6373V36.9ZM45.1303 36.9H45.9266V45H45.1303V36.9ZM46.6233 36.9H47.4196V45H46.6233V36.9ZM48.1163 36.9H48.9126V45H48.1163V36.9Z" fill="#23C2EE"/>
<path fill-rule="evenodd" clip-rule="evenodd" d="M51.2017 36H60.9559V45.8H51.2017V36ZM51.9979 36.9H52.7942V45H51.9979V36.9ZM53.3914 36.9H54.1877V45H53.3914V36.9ZM54.8844 36.9H55.6807V45H54.8844V36.9ZM56.3774 36.9H57.1737V45H56.3774V36.9ZM57.8704 36.9H58.6667V45H57.8704V36.9ZM59.2639 36.9H60.0601V45H59.2639V36.9Z" fill="#00ACD3"/>
<path fill-rule="evenodd" clip-rule="evenodd" d="M51.2017 24.8H60.9559V34.5H51.2017V24.8ZM51.9979 25.6H52.7942V33.7001H51.9979V25.6ZM53.3914 25.6H54.1877V33.7001H53.3914V25.6ZM54.8844 25.6H55.6807V33.7001H54.8844V25.6ZM56.3774 25.6H57.1737V33.7001H56.3774V25.6ZM57.8704 25.6H58.6667V33.7001H57.8704V25.6ZM59.2639 25.6H60.0601V33.7001H59.2639V25.6ZM62.3494 36H72.1037V45.8H62.3494V36ZM63.2452 36.9001H64.0415V45H63.2452V36.9001ZM64.6387 36.9001H65.4349V45H64.6387V36.9001ZM66.1317 36.9001H66.9279V45H66.1317V36.9001ZM67.6247 36.9001H68.4209V45H67.6247V36.9001ZM69.0181 36.9001H69.8144V45H69.0181V36.9001ZM70.5111 36.9001H71.3074V45H70.5111V36.9001Z" fill="#23C2EE"/>
<path fill-rule="evenodd" clip-rule="evenodd" d="M62.3496 24.8H72.1039V34.5H62.3496V24.8ZM63.2454 25.6H64.0417V33.7001H63.2454V25.6ZM64.6389 25.6H65.4351V33.7001H64.6389V25.6ZM66.1319 25.6H66.9281V33.7001H66.1319V25.6ZM67.6249 25.6H68.4211V33.7001H67.6249V25.6ZM69.0183 25.6H69.8146V33.7001H69.0183V25.6ZM70.5113 25.6H71.3076V33.7001H70.5113V25.6Z" fill="#00ACD3"/>
<path fill-rule="evenodd" clip-rule="evenodd" d="M62.3496 13.5H72.1039V23.3H62.3496V13.5ZM63.2454 14.3H64.0417V22.5H63.2454V14.3ZM64.6389 14.3H65.4351V22.5H64.6389V14.3ZM66.1319 14.3H66.9281V22.5H66.1319V14.3ZM67.6249 14.3H68.4211V22.5H67.6249V14.3ZM69.0183 14.3H69.8146V22.5H69.0183V14.3ZM70.5113 14.3H71.3076V22.5H70.5113V14.3Z" fill="#23C2EE"/>
<path fill-rule="evenodd" clip-rule="evenodd" d="M73.5967 36H83.3509V45.8H73.5967V36ZM74.3929 36.9H75.1892V45H74.3929V36.9ZM75.8859 36.9H76.6822V45H75.8859V36.9ZM77.3789 36.9H78.1752V45H77.3789V36.9ZM78.7724 36.9H79.5687V45H78.7724V36.9ZM80.2654 36.9H81.0617V45H80.2654V36.9ZM81.7584 36.9H82.5547V45H81.7584V36.9Z" fill="#00ACD3"/>
<path fill-rule="evenodd" clip-rule="evenodd" d="M49.0121 61.7C50.5051 61.7 51.6995 62.9 51.6995 64.4C51.6995 65.9 50.5051 67.0999 49.0121 67.0999C47.5191 67.0999 46.3247 65.9 46.3247 64.4C46.4242 62.9 47.6186 61.7 49.0121 61.7Z" fill="#D4EEF1"/>
<path fill-rule="evenodd" clip-rule="evenodd" d="M49.0117 62.4C49.2108 62.4 49.5094 62.4 49.7084 62.5C49.5094 62.6 49.3103 62.9 49.3103 63.2C49.3103 63.6 49.7084 64 50.1066 64C50.4052 64 50.7038 63.8 50.8033 63.6C50.9028 63.8 50.9028 64.1 50.9028 64.3C50.9028 65.4 50.007 66.2 49.0117 66.2C47.9168 66.2 47.1206 65.3 47.1206 64.3C47.1206 63.3 48.0164 62.4 49.0117 62.4ZM1.63379 56.1H126.349C123.662 55.4 117.789 54.5 118.685 50.9C113.708 56.6 101.864 54.9 98.7784 52.1C95.3943 57 75.8857 55.1 74.5918 51.3C70.4114 56.3 57.3725 56.3 53.1921 51.3C51.7986 55.1 32.2901 57 29.0055 52.1C26.0195 54.9 14.0755 56.6 9.0988 50.9C10.1937 54.4 4.32119 55.4 1.63379 56.1Z" fill="#3A4D54"/>
<path d="M56.1784 81.1C49.5097 77.9 45.9265 73.6 43.8363 68.9C41.3479 69.6 38.3619 70.1 34.9778 70.3C33.6839 70.4 32.2904 70.4 30.8969 70.4C29.2049 70.4 27.5128 70.4 25.7212 70.3C31.7927 76.4 39.3573 81.1 53.1924 81.2C54.1877 81.1 55.1831 81.1 56.1784 81.1Z" fill="#BFDBE0"/>
<path d="M46.3243 73.2C45.4285 71.9 44.5327 70.4 43.836 68.9C41.3477 69.6 38.3617 70.1 34.9775 70.3C37.3663 71.6 40.7505 72.8 46.3243 73.2Z" fill="#D4EEF1"/>
</svg>
