<svg width="129" height="129" viewBox="0 0 129 129" fill="none" xmlns="http://www.w3.org/2000/svg">
<path d="M40.9655 78.32V51.24H42.4286V55.5C42.6014 55.3113 42.7611 55.1108 42.9064 54.9C43.5042 53.6531 44.4435 52.6033 45.614 51.8736C46.7846 51.1439 48.1379 50.7645 49.5154 50.78C52.8498 50.68 55.5571 51.92 57.1496 54.9C58.1629 56.7512 58.7206 58.8192 58.776 60.9311C58.8314 63.0431 58.3829 65.1377 57.4681 67.04C55.9851 70.38 52.3222 72.04 48.4006 71.43C47.1802 71.3256 46.0053 70.9158 44.983 70.238C43.9607 69.5603 43.1236 68.6362 42.5481 67.55V78.32H40.9655ZM42.4286 60.82C42.558 62.14 42.6078 63.08 42.7571 64C43.3344 67.62 45.4644 69.77 48.8087 70.16C50.379 70.4193 51.9903 70.1235 53.3678 69.323C54.7454 68.5225 55.804 67.2668 56.3633 65.77C57.006 64.2304 57.3153 62.571 57.2707 60.902C57.226 59.2331 56.8285 57.5928 56.1045 56.09C55.5075 54.7484 54.4922 53.6384 53.212 52.9276C51.9317 52.2168 50.456 51.9439 49.0078 52.15C47.648 52.249 46.3528 52.7712 45.3021 53.644C44.2514 54.5168 43.4975 55.6968 43.1453 57.02C42.8335 58.2717 42.5942 59.5405 42.4286 60.82ZM88.6221 64.5C88.4004 66.4066 87.497 68.1675 86.08 69.455C84.6629 70.7426 82.8286 71.4693 80.9182 71.5C74.7869 71.81 71.9104 67.72 71.4526 63C71.1348 60.4368 71.549 57.8356 72.647 55.5C73.4116 53.8979 74.6638 52.5818 76.2224 51.7422C77.781 50.9027 79.565 50.5832 81.3163 50.83C82.9813 50.9718 84.5597 51.6362 85.828 52.7292C87.0963 53.8222 87.9902 55.2883 88.3832 56.92C88.6947 58.4061 88.924 59.9084 89.07 61.42H72.9555C72.6569 65.7 74.9462 69.14 78.191 69.97C82.232 70.97 85.6859 69.21 86.94 65.35C87.2187 64.36 87.7263 64.22 88.6221 64.5ZM72.9555 60.05H87.358C87.2684 55.49 84.4417 52.19 80.6097 52.14C76.27 52.07 73.1446 55.25 72.9555 60.05ZM91.5882 64.6H93.0016C93.0538 65.6449 93.3917 66.655 93.9782 67.5195C94.5647 68.384 95.3771 69.0692 96.326 69.5C97.5176 70.0387 98.8148 70.3006 100.121 70.2659C101.427 70.2313 102.709 69.9011 103.871 69.3C104.504 69.0133 105.034 68.5383 105.39 67.9393C105.746 67.3403 105.91 66.6459 105.861 65.95C105.898 65.2788 105.715 64.614 105.342 64.0564C104.968 63.4987 104.424 63.0787 103.791 62.86C102.238 62.28 100.586 61.96 99.0034 61.45C97.3568 60.9789 95.7467 60.3873 94.186 59.68C91.638 58.43 91.4787 53.56 94.3652 52.02C95.8432 51.182 97.5065 50.7293 99.2034 50.7031C100.9 50.6769 102.577 51.0781 104.08 51.87C104.99 52.3755 105.726 53.1479 106.188 54.0841C106.65 55.0203 106.818 56.0758 106.668 57.11H105.453C105.453 57.05 105.344 57 105.344 56.94C105.194 53.05 101.95 51.85 98.466 52.19C97.426 52.3189 96.4159 52.6267 95.48 53.1C94.9176 53.3583 94.449 53.7857 94.1388 54.3231C93.8286 54.8605 93.6921 55.4813 93.7481 56.1C93.7498 56.7189 93.942 57.3222 94.2984 57.8271C94.6548 58.3319 95.1579 58.7137 95.7387 58.92C97.2716 59.48 98.874 59.84 100.447 60.28C101.711 60.63 103.025 60.86 104.249 61.28C105.113 61.5646 105.871 62.1061 106.422 62.8329C106.973 63.5597 107.291 64.4374 107.334 65.35C107.482 66.3499 107.313 67.3711 106.85 68.2686C106.387 69.1662 105.655 69.8944 104.756 70.35C101.432 72.24 95.9577 71.74 93.5191 69.35C92.9011 68.7255 92.4123 67.9843 92.0809 67.169C91.7495 66.3537 91.582 65.4806 91.5882 64.6ZM125.25 57.11H123.927C123.927 56.93 123.857 56.77 123.837 56.62C123.816 55.6231 123.454 54.6638 122.812 53.9028C122.171 53.1419 121.289 52.6254 120.314 52.44C118.473 51.9096 116.511 52.0045 114.73 52.71C114.026 52.9128 113.406 53.3388 112.963 53.9246C112.52 54.5103 112.277 55.2243 112.271 55.96C112.246 56.6825 112.471 57.3914 112.906 57.9671C113.341 58.5429 113.961 58.95 114.66 59.12C116.651 59.74 118.691 60.12 120.712 60.68C121.366 60.8379 122.011 61.0349 122.643 61.27C123.585 61.6089 124.405 62.2257 124.993 63.0397C125.581 63.8537 125.912 64.8272 125.941 65.8328C125.97 66.8384 125.696 67.8295 125.156 68.6764C124.615 69.5233 123.833 70.1868 122.911 70.58C121.507 71.2208 119.984 71.5598 118.442 71.5753C116.899 71.5908 115.37 71.2825 113.953 70.67C112.788 70.165 111.805 69.3135 111.136 68.2301C110.466 67.1466 110.144 65.8833 110.211 64.61H111.505C111.744 65.7703 112.261 66.8545 113.012 67.7686C113.762 68.6828 114.723 69.3994 115.811 69.8564C116.9 70.3135 118.082 70.4971 119.257 70.3914C120.432 70.2857 121.563 69.8939 122.553 69.25C123.156 68.9352 123.657 68.4532 123.995 67.8612C124.334 67.2692 124.497 66.592 124.464 65.91C124.494 65.2384 124.305 64.5753 123.926 64.0213C123.547 63.4673 122.999 63.0525 122.364 62.84C120.811 62.26 119.159 61.95 117.576 61.44C115.92 60.9761 114.3 60.3913 112.729 59.69C110.241 58.46 110.042 53.63 112.878 52.09C114.375 51.2169 116.071 50.7479 117.801 50.7287C119.531 50.7094 121.237 51.1405 122.752 51.98C123.619 52.4997 124.316 53.2613 124.76 54.1721C125.203 55.0829 125.374 56.1036 125.25 57.11ZM38.5468 71.01C38.0257 71.2083 37.4503 71.2078 36.9295 71.0088C36.4086 70.8098 35.9784 70.4261 35.7201 69.93C34.0977 67.49 32.3061 65.16 30.5841 62.78L29.8376 61.78C27.7872 64.54 25.7369 67.19 23.8656 69.94C23.6218 70.4141 23.2148 70.783 22.7204 70.978C22.226 71.173 21.6779 71.1808 21.1782 71L28.8722 60.63L21.7157 51.26C22.2309 51.0731 22.7944 51.0706 23.3112 51.2527C23.828 51.4349 24.2664 51.7907 24.5524 52.26C26.2146 54.7 28.056 57.03 29.8874 59.5C31.7288 57.05 33.5502 54.71 35.2523 52.29C35.4974 51.8236 35.9046 51.464 36.3965 51.2796C36.8883 51.0953 37.4304 51.0989 37.9198 51.29L35.1428 54.99C33.8986 56.64 32.6743 58.3 31.3804 59.91C31.2761 60.0038 31.1927 60.1186 31.1356 60.247C31.0785 60.3754 31.049 60.5144 31.049 60.655C31.049 60.7956 31.0785 60.9346 31.1356 61.063C31.1927 61.1914 31.2761 61.3062 31.3804 61.4C33.7593 64.57 36.1182 67.75 38.5468 71.01ZM71.2137 51.16V52.56C70.207 52.4937 69.1977 52.6401 68.2508 52.99C67.3039 53.3398 66.4406 53.8852 65.7165 54.591C64.9925 55.2968 64.4237 56.1473 64.0471 57.0876C63.6704 58.0279 63.4942 59.037 63.5297 60.05V71.05H62.1064V51.24H63.4998V55.3C65.2218 52.34 67.8793 51.24 71.2137 51.16ZM2.74463 60.5C2.95365 59.5 3.08304 58.41 3.37169 57.39C5.09362 51.24 12.1107 48.68 16.9381 52.49C19.7648 54.72 20.4715 57.88 20.3322 61.44H4.40684C4.14805 67.8 8.71664 71.64 14.5592 69.68C15.507 69.3394 16.3554 68.767 17.0279 68.0146C17.7004 67.2621 18.1758 66.3532 18.4112 65.37C18.7197 64.37 19.2174 64.2 20.163 64.49C20.0072 65.7074 19.5788 66.8735 18.9099 67.9006C18.241 68.9277 17.349 69.7891 16.3011 70.42C14.5696 71.3713 12.5831 71.7481 10.6255 71.4967C8.668 71.2452 6.83974 70.3784 5.40217 69.02C3.98 67.4134 3.12007 65.3835 2.95365 63.24C2.95365 62.9 2.82426 62.56 2.75458 62.24C2.74795 61.6467 2.74463 61.0667 2.74463 60.5ZM4.42674 60.07H18.8292C18.7397 55.46 15.8432 52.19 11.9813 52.16C7.68149 52.1 4.6059 55.3 4.41679 60.05L4.42674 60.07Z" fill="black"/>
</svg>
