<svg width="128" height="129" viewBox="0 0 128 129" fill="none" xmlns="http://www.w3.org/2000/svg">
<g clip-path="url(#clip0_20_265)">
<mask id="path-1-outside-1_20_265" maskUnits="userSpaceOnUse" x="0.195068" y="37.276" width="128" height="55" fill="black">
<rect fill="white" x="0.195068" y="37.276" width="128" height="55"/>
<path d="M75.6495 51.088C68.0302 51.088 64.2439 55.084 64.2439 60.838C64.2439 64.542 66.0873 67.166 68.5279 68.367C67.3325 69.468 66.3371 70.431 65.4403 71.381C64.5425 72.333 63.9951 73.338 63.9951 74.44C63.9951 75.792 64.5425 77.045 66.1868 77.743C64.444 79.397 63.4467 80.597 63.4467 82.85C63.4467 86.803 66.8836 89.106 75.8993 89.106C84.5667 89.106 89.5961 85.855 89.5961 80.099C89.5961 73.446 84.5169 73.195 75.8993 72.643L71.0182 72.343L72.6625 69.691C73.5573 69.941 75.0035 70.141 76.599 70.141C82.8736 70.141 87.2073 66.889 87.2073 61.333C87.2073 59.031 86.0756 57.43 85.1798 56.278L89.5802 55.928V51.5H80.233C79.0884 51.5 77.7914 51.088 75.6495 51.088ZM77.891 79.599C80.2838 79.749 82.1769 79.849 82.1769 81.453C82.1769 84.152 78.2403 84.355 75.3529 84.355C71.8652 84.355 69.3251 83.753 69.3251 81.752C69.3251 80.75 69.9721 79.9 70.6211 79.1L77.891 79.599ZM75.9511 64.887C72.6625 64.887 71.3178 63.184 71.3178 60.733C71.3178 57.48 73.3592 56.128 76.0994 56.128C78.9381 56.128 80.6321 57.68 80.6321 60.632C80.6321 63.236 78.739 64.887 75.9511 64.887ZM98.7104 47.185C101.599 47.185 103.243 45.533 103.243 42.679C103.243 39.829 101.599 38.276 98.7104 38.276C95.8707 38.276 94.2264 39.829 94.2264 42.679C94.2264 45.532 95.8707 47.185 98.7104 47.185ZM102.52 71.955V51.5H92.8319L92.2845 55.396L94.9391 56.27C95.4387 56.419 95.5522 56.693 95.5522 57.243V71.955C95.5522 72.707 95.1321 72.857 94.4344 72.958L91.5708 73.308V77.5H106.501V73.308L103.638 72.958C102.889 72.857 102.52 72.758 102.52 71.955ZM124.833 70.915C123.637 71.365 122.213 71.714 120.817 71.714C118.128 71.714 117.45 70.564 117.45 67.611V55.5H124.417V50.5H117.81C117.411 50.5 117.45 50.497 117.45 50.147V43.5H112.679C112.131 48.5 109.487 50.696 105.506 51.198V55.5H109.49C109.889 55.5 109.487 55.853 109.487 56.152V69.263C109.487 74.92 111.929 77.321 117.856 77.321C120.696 77.321 123.934 76.37 126.077 75.32L124.833 70.915ZM29.5994 39.306C29.2874 38.9926 28.9171 38.744 28.5095 38.5744C28.102 38.4048 27.6651 38.3175 27.224 38.3175C26.7828 38.3175 26.346 38.4048 25.9385 38.5744C25.5309 38.744 25.1606 38.9926 24.8486 39.306L20.1198 44.057L26.1187 50.084C26.8261 49.842 27.5869 49.8045 28.3145 49.9759C29.0421 50.1473 29.7071 50.5206 30.2338 51.0532C30.7604 51.5859 31.1275 52.2565 31.2932 52.9886C31.4589 53.7207 31.4166 54.4849 31.171 55.194L36.9529 61.003C37.8074 60.7045 38.7374 60.7063 39.5907 61.0081C40.4441 61.31 41.1701 61.894 41.6499 62.6646C42.1297 63.4351 42.3349 64.3465 42.2318 65.2495C42.1287 66.1525 41.7235 66.9936 41.0825 67.635C40.7115 68.0082 40.2708 68.3043 39.7858 68.5063C39.3007 68.7084 38.7808 68.8123 38.2558 68.8123C37.7307 68.8123 37.2108 68.7084 36.7258 68.5063C36.2407 68.3043 35.8001 68.0082 35.429 67.635C34.2545 66.454 33.8126 64.721 34.4088 63.267L28.8648 57.85V72.107C28.8648 72.296 29.7556 72.548 30.0731 72.866C31.6338 74.434 31.7095 76.976 30.1478 78.547C29.7802 78.9196 29.3429 79.2153 28.8609 79.4171C28.379 79.6189 27.8621 79.7228 27.3399 79.7228C26.8178 79.7228 26.3009 79.6189 25.819 79.4171C25.337 79.2153 24.8997 78.9196 24.5321 78.547C22.9714 76.976 22.9903 74.435 24.552 72.866C24.9382 72.479 24.8835 72.186 25.8788 71.99V57.601C24.8835 57.405 24.9561 57.114 24.5709 56.725C24.0102 56.1616 23.6289 55.4434 23.4756 54.6616C23.3222 53.8799 23.4038 53.07 23.71 52.335L17.7957 46.392L2.1799 62.081C1.86769 62.3944 1.62001 62.7665 1.45103 63.176C1.28205 63.5856 1.19507 64.0246 1.19507 64.468C1.19507 64.9114 1.28205 65.3504 1.45103 65.76C1.62001 66.1695 1.86769 66.5417 2.1799 66.855L24.9551 89.736C25.5854 90.3685 26.4397 90.7237 27.3305 90.7237C28.2213 90.7237 29.0756 90.3685 29.7059 89.736L52.3746 66.96C53.0042 66.3266 53.3578 65.4681 53.3578 64.573C53.3578 63.6779 53.0042 62.8194 52.3746 62.186L29.5994 39.306Z"/>
</mask>
<path d="M75.6495 51.088C68.0302 51.088 64.2439 55.084 64.2439 60.838C64.2439 64.542 66.0873 67.166 68.5279 68.367C67.3325 69.468 66.3371 70.431 65.4403 71.381C64.5425 72.333 63.9951 73.338 63.9951 74.44C63.9951 75.792 64.5425 77.045 66.1868 77.743C64.444 79.397 63.4467 80.597 63.4467 82.85C63.4467 86.803 66.8836 89.106 75.8993 89.106C84.5667 89.106 89.5961 85.855 89.5961 80.099C89.5961 73.446 84.5169 73.195 75.8993 72.643L71.0182 72.343L72.6625 69.691C73.5573 69.941 75.0035 70.141 76.599 70.141C82.8736 70.141 87.2073 66.889 87.2073 61.333C87.2073 59.031 86.0756 57.43 85.1798 56.278L89.5802 55.928V51.5H80.233C79.0884 51.5 77.7914 51.088 75.6495 51.088ZM77.891 79.599C80.2838 79.749 82.1769 79.849 82.1769 81.453C82.1769 84.152 78.2403 84.355 75.3529 84.355C71.8652 84.355 69.3251 83.753 69.3251 81.752C69.3251 80.75 69.9721 79.9 70.6211 79.1L77.891 79.599ZM75.9511 64.887C72.6625 64.887 71.3178 63.184 71.3178 60.733C71.3178 57.48 73.3592 56.128 76.0994 56.128C78.9381 56.128 80.6321 57.68 80.6321 60.632C80.6321 63.236 78.739 64.887 75.9511 64.887ZM98.7104 47.185C101.599 47.185 103.243 45.533 103.243 42.679C103.243 39.829 101.599 38.276 98.7104 38.276C95.8707 38.276 94.2264 39.829 94.2264 42.679C94.2264 45.532 95.8707 47.185 98.7104 47.185ZM102.52 71.955V51.5H92.8319L92.2845 55.396L94.9391 56.27C95.4387 56.419 95.5522 56.693 95.5522 57.243V71.955C95.5522 72.707 95.1321 72.857 94.4344 72.958L91.5708 73.308V77.5H106.501V73.308L103.638 72.958C102.889 72.857 102.52 72.758 102.52 71.955ZM124.833 70.915C123.637 71.365 122.213 71.714 120.817 71.714C118.128 71.714 117.45 70.564 117.45 67.611V55.5H124.417V50.5H117.81C117.411 50.5 117.45 50.497 117.45 50.147V43.5H112.679C112.131 48.5 109.487 50.696 105.506 51.198V55.5H109.49C109.889 55.5 109.487 55.853 109.487 56.152V69.263C109.487 74.92 111.929 77.321 117.856 77.321C120.696 77.321 123.934 76.37 126.077 75.32L124.833 70.915ZM29.5994 39.306C29.2874 38.9926 28.9171 38.744 28.5095 38.5744C28.102 38.4048 27.6651 38.3175 27.224 38.3175C26.7828 38.3175 26.346 38.4048 25.9385 38.5744C25.5309 38.744 25.1606 38.9926 24.8486 39.306L20.1198 44.057L26.1187 50.084C26.8261 49.842 27.5869 49.8045 28.3145 49.9759C29.0421 50.1473 29.7071 50.5206 30.2338 51.0532C30.7604 51.5859 31.1275 52.2565 31.2932 52.9886C31.4589 53.7207 31.4166 54.4849 31.171 55.194L36.9529 61.003C37.8074 60.7045 38.7374 60.7063 39.5907 61.0081C40.4441 61.31 41.1701 61.894 41.6499 62.6646C42.1297 63.4351 42.3349 64.3465 42.2318 65.2495C42.1287 66.1525 41.7235 66.9936 41.0825 67.635C40.7115 68.0082 40.2708 68.3043 39.7858 68.5063C39.3007 68.7084 38.7808 68.8123 38.2558 68.8123C37.7307 68.8123 37.2108 68.7084 36.7258 68.5063C36.2407 68.3043 35.8001 68.0082 35.429 67.635C34.2545 66.454 33.8126 64.721 34.4088 63.267L28.8648 57.85V72.107C28.8648 72.296 29.7556 72.548 30.0731 72.866C31.6338 74.434 31.7095 76.976 30.1478 78.547C29.7802 78.9196 29.3429 79.2153 28.8609 79.4171C28.379 79.6189 27.8621 79.7228 27.3399 79.7228C26.8178 79.7228 26.3009 79.6189 25.819 79.4171C25.337 79.2153 24.8997 78.9196 24.5321 78.547C22.9714 76.976 22.9903 74.435 24.552 72.866C24.9382 72.479 24.8835 72.186 25.8788 71.99V57.601C24.8835 57.405 24.9561 57.114 24.5709 56.725C24.0102 56.1616 23.6289 55.4434 23.4756 54.6616C23.3222 53.8799 23.4038 53.07 23.71 52.335L17.7957 46.392L2.1799 62.081C1.86769 62.3944 1.62001 62.7665 1.45103 63.176C1.28205 63.5856 1.19507 64.0246 1.19507 64.468C1.19507 64.9114 1.28205 65.3504 1.45103 65.76C1.62001 66.1695 1.86769 66.5417 2.1799 66.855L24.9551 89.736C25.5854 90.3685 26.4397 90.7237 27.3305 90.7237C28.2213 90.7237 29.0756 90.3685 29.7059 89.736L52.3746 66.96C53.0042 66.3266 53.3578 65.4681 53.3578 64.573C53.3578 63.6779 53.0042 62.8194 52.3746 62.186L29.5994 39.306Z" fill="#F34F29"/>
<path d="M75.6495 51.088C68.0302 51.088 64.2439 55.084 64.2439 60.838C64.2439 64.542 66.0873 67.166 68.5279 68.367C67.3325 69.468 66.3371 70.431 65.4403 71.381C64.5425 72.333 63.9951 73.338 63.9951 74.44C63.9951 75.792 64.5425 77.045 66.1868 77.743C64.444 79.397 63.4467 80.597 63.4467 82.85C63.4467 86.803 66.8836 89.106 75.8993 89.106C84.5667 89.106 89.5961 85.855 89.5961 80.099C89.5961 73.446 84.5169 73.195 75.8993 72.643L71.0182 72.343L72.6625 69.691C73.5573 69.941 75.0035 70.141 76.599 70.141C82.8736 70.141 87.2073 66.889 87.2073 61.333C87.2073 59.031 86.0756 57.43 85.1798 56.278L89.5802 55.928V51.5H80.233C79.0884 51.5 77.7914 51.088 75.6495 51.088ZM77.891 79.599C80.2838 79.749 82.1769 79.849 82.1769 81.453C82.1769 84.152 78.2403 84.355 75.3529 84.355C71.8652 84.355 69.3251 83.753 69.3251 81.752C69.3251 80.75 69.9721 79.9 70.6211 79.1L77.891 79.599ZM75.9511 64.887C72.6625 64.887 71.3178 63.184 71.3178 60.733C71.3178 57.48 73.3592 56.128 76.0994 56.128C78.9381 56.128 80.6321 57.68 80.6321 60.632C80.6321 63.236 78.739 64.887 75.9511 64.887ZM98.7104 47.185C101.599 47.185 103.243 45.533 103.243 42.679C103.243 39.829 101.599 38.276 98.7104 38.276C95.8707 38.276 94.2264 39.829 94.2264 42.679C94.2264 45.532 95.8707 47.185 98.7104 47.185ZM102.52 71.955V51.5H92.8319L92.2845 55.396L94.9391 56.27C95.4387 56.419 95.5522 56.693 95.5522 57.243V71.955C95.5522 72.707 95.1321 72.857 94.4344 72.958L91.5708 73.308V77.5H106.501V73.308L103.638 72.958C102.889 72.857 102.52 72.758 102.52 71.955ZM124.833 70.915C123.637 71.365 122.213 71.714 120.817 71.714C118.128 71.714 117.45 70.564 117.45 67.611V55.5H124.417V50.5H117.81C117.411 50.5 117.45 50.497 117.45 50.147V43.5H112.679C112.131 48.5 109.487 50.696 105.506 51.198V55.5H109.49C109.889 55.5 109.487 55.853 109.487 56.152V69.263C109.487 74.92 111.929 77.321 117.856 77.321C120.696 77.321 123.934 76.37 126.077 75.32L124.833 70.915ZM29.5994 39.306C29.2874 38.9926 28.9171 38.744 28.5095 38.5744C28.102 38.4048 27.6651 38.3175 27.224 38.3175C26.7828 38.3175 26.346 38.4048 25.9385 38.5744C25.5309 38.744 25.1606 38.9926 24.8486 39.306L20.1198 44.057L26.1187 50.084C26.8261 49.842 27.5869 49.8045 28.3145 49.9759C29.0421 50.1473 29.7071 50.5206 30.2338 51.0532C30.7604 51.5859 31.1275 52.2565 31.2932 52.9886C31.4589 53.7207 31.4166 54.4849 31.171 55.194L36.9529 61.003C37.8074 60.7045 38.7374 60.7063 39.5907 61.0081C40.4441 61.31 41.1701 61.894 41.6499 62.6646C42.1297 63.4351 42.3349 64.3465 42.2318 65.2495C42.1287 66.1525 41.7235 66.9936 41.0825 67.635C40.7115 68.0082 40.2708 68.3043 39.7858 68.5063C39.3007 68.7084 38.7808 68.8123 38.2558 68.8123C37.7307 68.8123 37.2108 68.7084 36.7258 68.5063C36.2407 68.3043 35.8001 68.0082 35.429 67.635C34.2545 66.454 33.8126 64.721 34.4088 63.267L28.8648 57.85V72.107C28.8648 72.296 29.7556 72.548 30.0731 72.866C31.6338 74.434 31.7095 76.976 30.1478 78.547C29.7802 78.9196 29.3429 79.2153 28.8609 79.4171C28.379 79.6189 27.8621 79.7228 27.3399 79.7228C26.8178 79.7228 26.3009 79.6189 25.819 79.4171C25.337 79.2153 24.8997 78.9196 24.5321 78.547C22.9714 76.976 22.9903 74.435 24.552 72.866C24.9382 72.479 24.8835 72.186 25.8788 71.99V57.601C24.8835 57.405 24.9561 57.114 24.5709 56.725C24.0102 56.1616 23.6289 55.4434 23.4756 54.6616C23.3222 53.8799 23.4038 53.07 23.71 52.335L17.7957 46.392L2.1799 62.081C1.86769 62.3944 1.62001 62.7665 1.45103 63.176C1.28205 63.5856 1.19507 64.0246 1.19507 64.468C1.19507 64.9114 1.28205 65.3504 1.45103 65.76C1.62001 66.1695 1.86769 66.5417 2.1799 66.855L24.9551 89.736C25.5854 90.3685 26.4397 90.7237 27.3305 90.7237C28.2213 90.7237 29.0756 90.3685 29.7059 89.736L52.3746 66.96C53.0042 66.3266 53.3578 65.4681 53.3578 64.573C53.3578 63.6779 53.0042 62.8194 52.3746 62.186L29.5994 39.306Z" stroke="black" stroke-opacity="0.26" stroke-width="2" mask="url(#path-1-outside-1_20_265)"/>
</g>
<defs>
<clipPath id="clip0_20_265">
<rect width="127.403" height="128" fill="white" transform="translate(0 0.5)"/>
</clipPath>
</defs>
</svg>
