<svg width="128" height="129" viewBox="0 0 128 129" fill="none" xmlns="http://www.w3.org/2000/svg">
<path d="M27.9322 116.854L19.9268 26.6429H107.892L99.8789 116.84L63.8558 126.873L27.9322 116.854Z" fill="#E44D26"/>
<path d="M63.9097 119.204L93.0172 111.096L99.8661 34.02H63.9097V119.204Z" fill="#F16529"/>
<path d="M63.9097 67.478H49.337L48.3317 56.147H63.9097V45.083H36.2961L36.5589 48.052L39.2662 78.541H63.9097V67.478ZM63.9097 96.211L63.8609 96.224L51.5974 92.896L50.8131 84.073H39.7579L41.3007 101.445L63.8589 107.737L63.9097 107.722V96.211Z" fill="#EBEBEB"/>
<path d="M28.1113 2.12695H33.7071V7.68295H38.8271V2.12695H44.4239V18.949H38.8271V13.316H33.7081V18.949H28.1113V2.12695ZM51.7824 7.70595H46.8555V2.12695H62.308V7.70595H57.3791V18.949H51.7824V7.70595ZM64.7605 2.12695H70.5952L74.1854 8.03795L77.7716 2.12695H83.6092V18.949H78.0343V10.611L74.1854 16.592H74.0878L70.2359 10.611V18.949H64.7595V2.12695H64.7605ZM86.3951 2.12695H91.9929V13.389H99.863V18.95H86.3951V2.12695Z" fill="black"/>
<path d="M63.8718 67.478V78.541H77.4323L76.1542 92.89L63.8718 96.221V107.731L86.448 101.445L86.6132 99.575L89.2011 70.448L89.4698 67.478H86.5017H63.8718ZM63.8718 45.083V56.147H90.4721L90.6921 53.66L91.1947 48.052L91.4585 45.083H63.8718Z" fill="white"/>
</svg>
