<svg width="128" height="129" viewBox="0 0 128 129" fill="none" xmlns="http://www.w3.org/2000/svg">
<path d="M1.8042 6.90796C1.8042 4.14654 4.04278 1.90796 6.8042 1.90796H121.404C124.166 1.90796 126.404 4.14654 126.404 6.90796V122.093C126.404 124.854 124.166 127.093 121.404 127.093H6.8042C4.04278 127.093 1.8042 124.854 1.8042 122.093V6.90796Z" fill="#F0DB4F"/>
<path d="M116.207 97.236C115.294 91.525 111.588 86.728 100.608 82.255C96.7939 80.494 92.5419 79.233 91.2748 76.329C90.8249 74.639 90.7652 73.687 91.0499 72.664C91.867 69.344 95.8115 68.309 98.9379 69.261C100.951 69.939 102.858 71.498 104.007 73.985C109.384 70.487 109.373 70.51 113.127 68.106C111.753 65.965 111.019 64.977 110.119 64.061C106.886 60.432 102.479 58.563 95.4323 58.706L91.7615 59.183C88.244 60.076 84.8917 61.931 82.926 64.418C77.0276 71.142 78.7097 82.91 85.8871 87.753C92.9579 93.085 103.345 94.298 104.672 99.284C105.963 105.388 100.207 107.364 94.4858 106.662C90.2695 105.781 87.9245 103.628 85.3894 99.713C80.7233 102.426 80.7233 102.426 75.9258 105.198C77.0634 107.697 78.2588 108.828 80.1659 110.993C89.1916 120.191 111.778 119.739 115.829 105.817C115.993 105.339 117.084 102.151 116.207 97.236ZM69.5407 59.443H57.8863L57.8386 89.715C57.8386 96.153 58.17 102.055 57.1279 103.864C55.4229 107.422 51.0046 106.981 48.991 106.291C46.9417 105.279 45.8995 103.84 44.6922 101.806C44.3608 101.222 44.1119 100.77 44.0283 100.735L34.5527 106.565C36.1283 109.814 38.4495 112.634 41.4225 114.466C45.8637 117.144 51.8327 117.965 58.0755 116.525C62.1384 115.336 65.644 112.873 67.4794 109.124C70.1329 104.209 69.5636 98.26 69.5397 91.68C69.5994 80.945 69.5407 70.212 69.5407 59.443Z" fill="#323330"/>
</svg>
