<svg width="128" height="129" viewBox="0 0 128 129" fill="none" xmlns="http://www.w3.org/2000/svg">
<g clip-path="url(#clip0_21_179)">
<path d="M123.591 63.52C123.591 55.828 117.79 49.355 110.003 47.508L127.444 0.613037H41.0093L58.4903 47.656C50.9477 49.652 45.3878 56.012 45.3878 63.559C45.3878 69.105 48.4315 74.023 53.0548 77.055C51.2314 79.422 49.1203 81.605 46.7285 83.675C42.2266 87.523 37.234 90.48 31.8413 92.441C26.9741 89.445 24.866 84.156 26.7711 79.421C34.1933 77.351 39.591 71.027 39.591 63.594C39.591 54.461 31.4372 47.062 21.456 47.062C11.4369 47.062 3.28815 54.496 3.28815 63.632C3.28815 68.145 5.31365 72.285 8.56043 75.242C8.27576 75.762 7.99309 76.277 7.70842 76.832C4.99116 81.938 1.90762 87.707 0.729145 94.18C-1.62283 107.121 2.23011 117.516 11.5186 123.395C16.752 126.688 22.514 128.352 28.7199 128.352C39.3839 128.352 50.2161 123.469 60.6791 118.734C68.1441 115.371 75.85 111.855 83.4354 110.156C86.2353 109.527 89.1546 109.156 92.2381 108.75C98.4818 107.937 104.933 107.086 110.733 104.016C117.507 100.43 122.13 94.437 123.471 87.559C124.481 82.269 123.471 76.945 120.873 72.285C122.647 69.7103 123.596 66.6518 123.59 63.52H123.591ZM115.683 63.52C115.683 68.66 111.099 72.84 105.461 72.84C99.8236 72.84 95.2391 68.66 95.2391 63.52C95.2391 61.855 95.7258 60.266 96.5768 58.898C96.9003 58.378 97.3083 57.863 97.7115 57.418C98.1388 56.9604 98.6151 56.5516 99.1318 56.199L99.1746 56.16C99.4971 55.938 99.8624 55.715 100.228 55.496C100.228 55.496 100.267 55.496 100.267 55.457C100.43 55.383 100.593 55.273 100.757 55.199C100.796 55.199 100.835 55.16 100.877 55.16C101.041 55.09 101.243 55.016 101.444 54.941C101.636 54.8737 101.825 54.7997 102.012 54.719C102.052 54.719 102.094 54.679 102.133 54.679C102.296 54.645 102.459 54.57 102.619 54.535C102.662 54.535 102.744 54.496 102.783 54.496C102.985 54.461 103.148 54.422 103.35 54.386H103.393L104 54.273C104.042 54.273 104.119 54.273 104.162 54.238C104.325 54.238 104.486 54.199 104.649 54.199H104.851C105.053 54.199 105.259 54.164 105.5 54.164H106.028C106.188 54.164 106.313 54.164 106.472 54.199H106.554C106.88 54.239 107.203 54.273 107.529 54.348C112.153 55.234 115.683 59.008 115.683 63.52ZM52.3233 8.00804H116.126L101.484 47.395C100.877 47.508 100.266 47.691 99.6603 47.875L84.2486 19.215L68.793 47.69C68.1829 47.507 67.5339 47.394 66.888 47.284L52.3233 8.00804ZM81.3243 60.3C80.5549 56.823 78.607 53.718 75.85 51.425L84.2486 35.968L92.7238 51.757C90.2086 54.05 88.3842 56.972 87.6536 60.3H81.3243ZM61.0056 54.46C61.2076 54.42 61.3708 54.386 61.5729 54.347H61.6933C61.8566 54.312 62.0208 54.312 62.18 54.272H62.3433C62.5065 54.272 62.6269 54.237 62.7902 54.237H64.3728C64.532 54.237 64.6564 54.272 64.7769 54.272C64.8585 54.272 64.8973 54.272 64.9789 54.312C65.1422 54.347 65.2626 54.347 65.4268 54.386C65.4646 54.386 65.5074 54.386 65.5891 54.421C65.7921 54.46 65.9942 54.495 66.1564 54.534H66.1962C66.3594 54.569 66.5227 54.604 66.6819 54.679C66.7247 54.679 66.7635 54.718 66.8452 54.718C66.9656 54.753 67.1288 54.792 67.2493 54.866C67.2921 54.866 67.3309 54.901 67.3737 54.901C67.533 54.976 67.6972 55.015 67.8604 55.089H67.8992C68.1013 55.159 68.2645 55.233 68.4277 55.347H68.4676C68.6298 55.421 68.793 55.53 68.9563 55.604C68.9961 55.604 68.9961 55.644 69.0339 55.644C69.1972 55.714 69.3186 55.827 69.4818 55.901L69.5246 55.936C70.0103 56.269 70.4572 56.64 70.9002 57.011L70.943 57.046C71.3481 57.452 71.7522 57.897 72.0786 58.378C73.1327 59.858 73.7428 61.597 73.7428 63.483C73.7428 68.624 69.1583 72.8 63.5208 72.8C57.8832 72.8 53.2987 68.624 53.2987 63.483C53.2569 59.155 56.5425 55.495 61.0056 54.46ZM21.0907 54.198C26.7292 54.198 31.3128 58.378 31.3128 63.518C31.3128 68.659 26.7292 72.838 21.0907 72.838C15.4531 72.838 10.8686 68.659 10.8686 63.518C10.8686 58.378 15.4531 54.198 21.0907 54.198ZM115.438 86.265C114.548 90.995 111.34 95.14 106.636 97.616C102.214 99.948 96.7788 100.686 91.0596 101.425C87.9383 101.831 84.6527 102.276 81.4875 102.979C73.0511 104.866 64.9401 108.565 57.071 112.112C47.0122 116.663 37.5177 120.952 28.7199 120.952C24.1354 120.952 20.0376 119.769 16.1459 117.292C7.2227 111.671 7.66563 101.132 8.72366 95.362C9.69511 89.96 12.4134 84.894 15.0102 80.05C15.1694 79.753 15.2939 79.495 15.4531 79.198C16.3479 79.495 17.2805 79.718 18.253 79.866C16.7132 87.706 21.0907 95.804 29.6097 99.8L31.1525 100.538L32.8137 99.983C39.9134 97.69 46.4836 93.956 52.2844 88.963C55.57 86.151 58.3699 83.12 60.7219 79.827C61.6545 79.976 62.5881 80.015 63.5208 80.015C71.9582 80.015 79.0539 74.725 81.0834 67.624H87.8955C89.925 74.761 97.0237 80.014 105.461 80.014C108.828 80.014 111.951 79.164 114.625 77.722C115.683 80.495 116.006 83.378 115.438 86.265Z" fill="#99425B"/>
</g>
<defs>
<clipPath id="clip0_21_179">
<rect width="127.403" height="128" fill="white" transform="translate(0.0415039 0.5)"/>
</clipPath>
</defs>
</svg>
