<svg width="128" height="129" viewBox="0 0 128 129" fill="none" xmlns="http://www.w3.org/2000/svg">
<path d="M91.7962 59.27L89.5069 64.69H94.0954L91.7962 59.27ZM61.0702 52.5H65.0516C65.2507 52.4762 65.4381 52.3926 65.5891 52.26C67.8982 49.5 68.2267 44.1 68.2267 42.2C68.2268 42.0178 68.1561 41.8427 68.0297 41.712C67.9033 41.5812 67.7312 41.5052 67.5499 41.5H58.5919C58.4124 41.5 58.2402 41.5716 58.1133 41.6992C57.9863 41.8267 57.915 41.9997 57.915 42.18C57.9847 44.08 58.2535 49.54 60.5527 52.26C60.615 52.3371 60.694 52.3988 60.7837 52.4404C60.8735 52.482 60.9715 52.5024 61.0702 52.5ZM65.4597 47.34C67.1318 46.73 67.1318 46.12 67.1318 46.12C66.9443 48.0135 66.2571 49.8225 65.1412 51.36C65.0884 51.4138 65.0245 51.4552 64.9539 51.4811C64.8833 51.507 64.8079 51.5169 64.7331 51.51H61.4087C61.2693 51.51 61.0702 51.51 61.0006 51.36C60.1706 50.2418 59.5932 48.9552 59.3085 47.59C59.3085 47.59 63.2301 48.15 65.4597 47.34Z" fill="#8D6748"/>
<path d="M116.321 30.44L67.6097 2.21998C66.5763 1.62052 65.404 1.30493 64.2107 1.30493C63.0173 1.30493 61.845 1.62052 60.8116 2.21998L11.9904 30.44C10.9381 31.0149 10.0538 31.8564 9.42522 32.8809C8.79665 33.9053 8.4457 35.0771 8.40723 36.28V92.72C8.45506 93.9169 8.80779 95.0814 9.43167 96.1021C10.0556 97.1229 10.9297 97.9657 11.9705 98.55L60.6822 126.77C61.7156 127.369 62.8879 127.685 64.0813 127.685C65.2746 127.685 66.4469 127.369 67.4803 126.77L116.301 98.56C117.337 97.968 118.208 97.1238 118.835 96.105C119.461 95.0863 119.822 93.9257 119.885 92.73V36.28C119.839 35.0814 119.487 33.9148 118.863 32.8922C118.239 31.8695 117.364 31.0251 116.321 30.44ZM111.922 88.79C111.917 89.8088 111.644 90.808 111.13 91.6863C110.616 92.5645 109.879 93.2903 108.996 93.79L66.9926 118.16C66.1156 118.692 65.1107 118.973 64.0862 118.973C63.0618 118.973 62.0569 118.692 61.1799 118.16L19.2265 93.81C18.346 93.3126 17.6157 92.5854 17.1129 91.7052C16.61 90.8251 16.3533 89.8247 16.3699 88.81V40.08C16.3617 39.0669 16.622 38.0698 17.124 37.1912C17.626 36.3125 18.3517 35.5839 19.2265 35.08L61.16 10.7C62.0328 10.1666 63.0348 9.88453 64.0564 9.88453C65.078 9.88453 66.08 10.1666 66.9528 10.7L108.966 35.05C109.853 35.5445 110.592 36.2694 111.105 37.149C111.618 38.0286 111.887 39.0305 111.882 40.05L111.922 88.79Z" fill="#8D6748"/>
<path d="M40.2578 67.8699C42.9184 67.8699 45.0753 65.703 45.0753 63.0299C45.0753 60.3569 42.9184 58.1899 40.2578 58.1899C37.5973 58.1899 35.4404 60.3569 35.4404 63.0299C35.4404 65.703 37.5973 67.8699 40.2578 67.8699Z" fill="#8D6748"/>
<path d="M108 36.82L65.9871 12.5C65.4109 12.157 64.7556 11.9709 64.086 11.96C63.4074 11.9742 62.7434 12.1599 62.1551 12.5L20.2216 36.82C19.6519 37.1666 19.1811 37.6555 18.855 38.2389C18.5288 38.8224 18.3584 39.4808 18.3604 40.15V88.85C18.3592 89.5177 18.53 90.1743 18.8561 90.7561C19.1823 91.3378 19.6527 91.8249 20.2216 92.17L62.1551 116.5C62.7205 116.851 63.3716 117.038 64.0362 117.04C64.7028 117.03 65.355 116.843 65.9274 116.5L107.96 92.15C108.542 91.8151 109.029 91.3359 109.374 90.7582C109.719 90.1804 109.911 89.5234 109.931 88.85V40.15C109.92 39.4752 109.737 38.8147 109.399 38.2316C109.06 37.6485 108.579 37.1624 108 36.82ZM67.1317 68.69C67.8229 68.6891 68.5057 68.5375 69.1329 68.2457C69.7601 67.9539 70.3169 67.5289 70.7647 67L72.2776 68.5C71.9519 68.867 71.5919 69.2019 71.2026 69.5C70.8297 69.7986 70.4219 70.0504 69.9883 70.25C69.5433 70.4769 69.0669 70.6354 68.575 70.72C67.9748 70.8339 67.3639 70.8808 66.7535 70.86C65.8515 70.8729 64.9562 70.7024 64.1214 70.3587C63.2867 70.015 62.5298 69.5052 61.8963 68.86C61.3103 68.215 60.8691 67.4511 60.6023 66.62C60.2855 65.7461 60.1369 64.8196 60.1644 63.89V63.82C60.1276 62.8979 60.2696 61.9775 60.5824 61.11C60.9017 60.2905 61.3597 59.5326 61.9361 58.87C62.559 58.2214 63.3123 57.7134 64.1457 57.38C65.0413 57.0195 65.9977 56.8361 66.9625 56.84C67.5256 56.8501 68.0875 56.8968 68.6446 56.98C69.1821 57.12 69.5902 57.25 70.058 57.39C70.462 57.5761 70.8456 57.804 71.2026 58.07C71.5507 58.3442 71.883 58.638 72.198 58.95L70.6452 60.58C70.1026 59.9906 69.4222 59.5464 68.6657 59.2877C67.9092 59.0289 67.1004 58.9637 66.3125 59.098C65.5246 59.2322 64.7824 59.5617 64.1531 60.0566C63.5238 60.5515 63.0273 61.1962 62.7083 61.9323C62.3894 62.6685 62.2581 63.473 62.3265 64.2729C62.3948 65.0729 62.6605 65.8431 63.0996 66.5139C63.5387 67.1848 64.1374 67.735 64.8414 68.115C65.5454 68.4949 66.3326 68.6925 67.1317 68.69ZM64.3149 31.06C63.9765 31.53 64.3846 32.69 65.2605 34.06C65.4703 34.3819 65.6126 34.7434 65.6787 35.1224C65.7448 35.5015 65.7332 35.8901 65.6447 36.2644C65.5562 36.6388 65.3926 36.9912 65.164 37.2999C64.9353 37.6086 64.6464 37.8672 64.3149 38.06C64.3221 37.229 64.0601 36.4182 63.5684 35.75C61.956 33.29 63.439 32.14 64.3149 31.06ZM61.6176 33.57C61.3488 33.84 61.6176 34.66 62.2247 35.57C62.3694 35.7857 62.4686 36.0288 62.5164 36.2844C62.5642 36.54 62.5595 36.8027 62.5027 37.0565C62.4458 37.3102 62.338 37.5496 62.1858 37.76C62.0336 37.9704 61.8402 38.1473 61.6176 38.28C61.6196 37.7356 61.4602 37.2029 61.1597 36.75C60.0649 35.06 61.0104 34.31 61.6176 33.57ZM56.6807 39.5H69.3812C69.4673 39.4945 69.5536 39.5067 69.6349 39.5358C69.7161 39.5649 69.7907 39.6103 69.854 39.6692C69.9173 39.7281 69.968 39.7994 70.0031 39.8786C70.0381 39.9578 70.0568 40.0433 70.058 40.13C70.058 42.5 69.7196 50.5 66.3355 54.27C66.278 54.3392 66.2066 54.3955 66.126 54.4352C66.0454 54.4748 65.9574 54.4969 65.8677 54.5H60.1644C60.0728 54.4914 59.9839 54.4639 59.9034 54.4191C59.8229 54.3744 59.7525 54.3134 59.6966 54.24C56.3423 50.38 56.0138 42.5 56.0138 40.16C56.0138 40.0724 56.0312 39.9858 56.0648 39.9051C56.0984 39.8243 56.1477 39.7511 56.2098 39.6897C56.2718 39.6283 56.3454 39.5799 56.4263 39.5473C56.5071 39.5147 56.5936 39.4986 56.6807 39.5ZM21.3464 49.5H55.5361C55.5361 49.5 55.6058 49.5 55.6058 50.5H21.3464V49.5ZM55.1877 63.82V63.89C55.2024 64.8148 55.0437 65.7341 54.7199 66.6C54.3902 67.4371 53.896 68.199 53.2667 68.84C52.6428 69.4874 51.8898 69.9951 51.0571 70.33C50.1658 70.7167 49.2006 70.9011 48.2303 70.87C47.263 70.8671 46.3045 70.684 45.4036 70.33C44.5647 69.9957 43.8051 69.4881 43.174 68.84C42.5536 68.2016 42.0753 67.438 41.7706 66.6C41.4248 65.7389 41.249 64.8185 41.253 63.89V63.82C41.2588 62.8914 41.4377 61.9722 41.7806 61.11C42.1154 60.2731 42.6128 59.5116 43.2437 58.87C43.8717 58.2228 44.6278 57.7152 45.4633 57.38C46.3579 56.9928 47.3264 56.8084 48.3 56.84C49.2707 56.8421 50.2325 57.0252 51.1367 57.38C51.9755 57.7145 52.735 58.2221 53.3663 58.87C53.9681 59.5118 54.4262 60.2755 54.71 61.11C55.0426 61.9736 55.2049 62.894 55.1877 63.82ZM29.4086 67.5H29.309L25.3277 61.04V70.5H22.3417V57.5H25.3277L29.4484 63.88L33.5193 57.5H36.2764V70.5H33.2904V60.97L29.4086 67.5ZM106.945 75.5H21.3464V74.5H106.945V75.5ZM86.0431 62.5V57.5H88.0337V70.5H86.0431V64.5H79.0757V70.5H77.0851V57.5H79.0757V62.5H86.0431ZM92.7417 70.5L98.7137 57.5H100.874L106.846 70.5H104.347L102.964 67.5H96.5936L95.1802 70.5H92.7417ZM106.945 50.5H70.5258C70.5258 49.5 70.5955 49.5 70.5955 49.5H106.945V50.5Z" fill="#8D6748"/>
</svg>
