<svg width="128" height="129" viewBox="0 0 128 129" fill="none" xmlns="http://www.w3.org/2000/svg">
<path fill-rule="evenodd" clip-rule="evenodd" d="M87.2822 100.639C87.4504 100.314 87.6117 100.027 87.749 99.73C87.8356 99.54 87.969 99.502 88.1571 99.507C89.2848 99.539 90.4126 99.574 91.5413 99.585C92.4998 99.595 93.4603 99.577 94.4198 99.566C95.5007 99.553 96.5816 99.496 97.6616 99.527C99.0998 99.569 100.501 99.852 101.802 100.495C103.356 101.264 104.531 102.435 105.333 103.978C105.836 104.956 106.151 106.022 106.259 107.118C106.43 108.726 106.318 110.297 105.81 111.835C105.181 113.741 103.987 115.2 102.328 116.293C101.051 117.134 99.6502 117.631 98.1493 117.915C96.5607 118.216 94.9672 118.119 93.3737 118.124C91.6259 118.131 89.8791 118.093 88.1312 118.073C87.8257 118.07 87.7819 118.012 87.8625 117.719L87.9372 117.449C88.1074 116.911 88.1989 116.887 88.7424 116.797C89.1276 116.736 89.496 116.595 89.8243 116.384C90.0075 116.262 90.0831 115.944 90.1548 115.699C90.2165 115.485 90.2195 115.25 90.2214 115.024C90.2463 111.599 90.2722 108.175 90.2861 104.752C90.29 103.886 90.2684 103.021 90.2214 102.156C90.1876 101.551 89.8661 101.137 89.1495 100.994C88.5921 100.883 88.0307 100.797 87.4703 100.698L87.2822 100.639ZM103.283 108.932C103.208 108.25 103.171 107.562 103.049 106.89C102.759 105.277 102.056 103.872 100.822 102.771C98.8261 100.992 96.4234 100.718 93.9052 100.93C93.3319 100.978 93.2084 101.175 93.1995 101.767C93.1856 102.607 93.1716 103.447 93.1706 104.287C93.1666 106.951 93.1666 109.615 93.1706 112.279C93.1716 113.037 93.1796 113.795 93.2015 114.551C93.2254 115.325 93.5051 115.98 94.2595 116.28C95.4489 116.753 96.7001 116.809 97.9482 116.616C99.9419 116.309 101.336 115.142 102.272 113.393C103.012 112.005 103.222 110.49 103.283 108.932ZM108.13 118.003C108.106 117.588 108.275 117.245 108.484 116.93C108.541 116.845 108.736 116.849 108.87 116.822L110.011 116.595C110.414 116.509 110.626 116.237 110.683 115.84C110.72 115.578 110.756 115.313 110.759 115.048C110.786 112.951 110.806 110.854 110.818 108.757C110.828 106.657 110.82 104.557 110.82 102.457L110.811 102.056C110.77 101.381 110.446 101.031 109.779 100.932L108.333 100.711C108.154 100.687 108.09 100.601 108.154 100.442C108.266 100.171 108.372 99.89 108.53 99.646C108.588 99.556 108.786 99.521 108.92 99.524C109.611 99.534 110.301 99.586 110.992 99.585L117.005 99.549C118.163 99.548 119.282 99.751 120.321 100.308C121.465 100.92 122.105 101.867 122.288 103.157C122.479 104.512 122.07 105.654 121.085 106.561C120.68 106.935 120.155 107.179 119.685 107.483L119.532 107.579C119.968 107.74 120.383 107.879 120.787 108.045C121.97 108.532 122.91 109.293 123.408 110.508C123.801 111.467 123.801 112.467 123.568 113.461C123.206 115.017 122.186 116.052 120.859 116.835C119.614 117.57 118.266 117.998 116.831 118.07C115.507 118.137 114.177 118.112 112.85 118.127L112.082 118.131C110.803 118.101 109.525 118.069 108.246 118.035L108.13 118.003ZM113.641 111.914H113.654C113.654 112.572 113.645 113.23 113.657 113.888C113.665 114.314 113.65 114.752 113.741 115.162C113.879 115.775 114.157 116.328 114.842 116.504C115.757 116.746 116.714 116.788 117.647 116.628C118.818 116.423 119.753 115.833 120.266 114.712C120.646 113.879 120.703 112.996 120.572 112.094C120.399 110.906 119.771 110.044 118.727 109.479C118.042 109.108 117.311 108.881 116.533 108.851C115.661 108.818 114.788 108.816 113.916 108.789C113.672 108.782 113.638 108.907 113.639 109.109C113.644 110.043 113.641 110.978 113.641 111.914ZM115.497 107.439C115.974 107.415 116.513 107.408 117.05 107.354C118.077 107.251 118.8 106.732 119.178 105.745C119.37 105.244 119.362 104.728 119.367 104.207C119.382 102.85 118.593 101.738 117.31 101.278C116.32 100.923 115.299 100.917 114.272 100.945C113.856 100.956 113.67 101.139 113.664 101.56L113.602 107.049C113.599 107.267 113.692 107.361 113.903 107.368L115.497 107.439Z" fill="#94795D"/>
<path fill-rule="evenodd" clip-rule="evenodd" d="M10.9242 116.948L10.8515 117.892C10.1747 117.892 9.55062 117.887 8.92654 117.894C7.75105 117.906 6.57556 117.925 5.39908 117.942L5.28561 117.949C5.1174 117.929 4.81183 117.929 4.80387 117.879C4.7541 117.598 4.77003 117.303 4.78297 117.012C4.78396 116.979 4.89843 116.937 4.96511 116.921L5.87983 116.716C6.45015 116.567 6.65121 116.32 6.67808 115.728C6.70894 115.061 6.73979 114.393 6.74278 113.726C6.75174 112.084 6.74178 110.444 6.74875 108.802C6.74975 108.418 6.61737 108.132 6.26104 107.976C5.83762 107.787 5.41123 107.605 4.98203 107.43C4.77899 107.348 4.51522 107.303 4.53911 107.029C4.563 106.75 4.8188 106.677 5.05967 106.622C6.057 106.393 7.05531 106.17 8.04965 105.926C8.37015 105.847 8.67671 105.714 9.05992 105.58C9.07982 105.788 9.11665 105.986 9.11267 106.184L9.05394 107.125C9.05295 107.231 9.10769 107.373 9.18632 107.432C9.2341 107.469 9.39435 107.402 9.47397 107.34C10.324 106.69 11.2238 106.129 12.25 105.802C13.8395 105.295 15.2041 105.765 16.1596 107.142C16.4961 107.627 16.497 107.627 16.9639 107.288C17.7651 106.703 18.6032 106.187 19.5408 105.847C21.5991 105.1 23.5769 106.048 24.2925 108.131C24.5533 108.887 24.6528 109.668 24.6508 110.466L24.6319 115.764C24.6309 116.201 24.7752 116.45 25.1893 116.586C25.6541 116.739 26.1359 116.844 26.6594 116.982L26.538 117.893C25.9428 117.893 25.3953 117.889 24.8479 117.894C23.5102 117.906 22.1724 117.913 20.8357 117.944C20.6028 117.95 20.5421 117.892 20.5301 117.673C20.4913 116.972 20.4853 116.973 21.1423 116.815L21.3632 116.758C22.0052 116.582 22.2192 116.384 22.2242 115.73C22.2391 113.852 22.2779 111.969 22.1834 110.095C22.0848 108.151 20.549 107.116 18.6738 107.614C18.0686 107.78 17.4986 108.056 16.9917 108.428C16.8175 108.553 16.7847 108.697 16.7986 108.916C16.8514 109.744 16.8842 110.573 16.8912 111.402C16.9031 112.853 16.8852 114.304 16.8912 115.756C16.8932 116.344 17.0933 116.569 17.6715 116.705L18.5305 116.904L18.6898 116.94C18.7017 117.216 18.7127 117.492 18.6997 117.768C18.6918 117.941 18.5584 117.956 18.4091 117.953C17.574 117.932 16.7379 117.904 15.9028 117.906C14.8866 117.908 13.8714 117.937 12.8561 117.955H12.6172C12.6172 117.662 12.6033 117.382 12.6272 117.103C12.6322 117.036 12.7496 116.942 12.8302 116.921L13.8315 116.708C14.2566 116.603 14.4596 116.384 14.4835 115.95C14.597 113.94 14.6786 111.929 14.4905 109.92C14.4446 109.523 14.335 109.136 14.166 108.775C13.6534 107.637 12.4998 107.162 11.169 107.504C10.537 107.666 9.96666 107.957 9.42719 108.324C9.30955 108.397 9.21292 108.499 9.14692 108.621C9.08091 108.743 9.04783 108.88 9.05096 109.019C9.05096 111.024 9.05792 113.029 9.0639 115.033L9.07485 115.806C9.08679 116.345 9.31472 116.629 9.84722 116.745C10.1896 116.823 10.536 116.876 10.9242 116.948Z" fill="#50382B"/>
<path fill-rule="evenodd" clip-rule="evenodd" d="M71.0999 105.785C71.2542 106.539 71.2512 107.217 70.6998 107.731C70.1524 108.242 69.4596 108.07 68.7838 107.956C68.8465 108.314 68.9162 108.618 68.95 108.926C69.1958 111.215 68.2154 112.914 66.1023 113.885C65.3041 114.251 64.4571 114.387 63.5921 114.457C63.1621 114.491 62.7859 114.821 62.7451 115.176C62.7033 115.536 62.9282 115.906 63.3781 116.014C63.9086 116.141 64.462 116.177 65.0065 116.24C66.175 116.374 67.3565 116.435 68.5111 116.645C70.2569 116.961 71.2313 118.492 70.9237 120.254C70.65 121.822 69.7463 122.963 68.4862 123.838C66.3631 125.316 64.034 125.748 61.5537 124.994C60.1353 124.562 59.135 123.625 58.7896 122.109C58.6164 121.35 58.8006 120.663 59.3689 120.148C60.0447 119.538 60.7803 118.994 61.488 118.418L61.7169 118.187L61.4541 118.002C60.7325 117.658 60.1552 117.187 59.9313 116.369C59.8546 116.092 59.9343 115.91 60.1682 115.768C60.5663 115.527 60.9624 115.282 61.3556 115.033C61.5407 114.917 61.7239 114.797 61.8961 114.663C62.131 114.483 62.1101 114.349 61.8294 114.245C61.1764 114.003 60.5962 113.652 60.1463 113.112C59.3948 112.211 59.1818 111.138 59.2435 110.005C59.34 108.235 60.2966 107.069 61.8513 106.319C63.6996 105.428 65.5539 105.372 67.4381 106.184C68.1348 106.484 68.8694 106.548 69.6169 106.496C70.1753 106.456 70.663 106.244 71.0999 105.785ZM64.2888 118.466C62.9014 118.454 62.4664 118.626 61.6522 119.459C60.7405 120.393 60.7455 121.688 61.6552 122.626C62.346 123.337 63.2079 123.67 64.1664 123.77C65.2862 123.886 66.389 123.839 67.4062 123.276C68.4911 122.673 69.0306 121.553 68.7868 120.425C68.5847 119.494 67.9019 119.068 67.0708 118.823C66.1252 118.545 65.1478 118.492 64.2888 118.466ZM61.5636 109.558C61.6144 109.945 61.6353 110.337 61.7209 110.716C61.9428 111.698 62.3679 112.561 63.3403 112.998C64.4819 113.513 65.9401 113.292 66.4398 111.682C66.7811 110.611 66.7414 109.453 66.3273 108.408C66.1518 107.93 65.8359 107.517 65.4215 107.224C64.4302 106.529 62.6416 106.437 61.913 107.973C61.6761 108.472 61.5835 109.003 61.5636 109.558Z" fill="#4F382B"/>
<path fill-rule="evenodd" clip-rule="evenodd" d="M47.5592 105.538C47.596 105.709 47.6697 105.903 47.6717 106.098C47.6747 106.469 47.6349 106.84 47.614 107.211V107.533L47.9265 107.293C48.7825 106.585 49.7022 105.982 50.7732 105.657C52.7061 105.072 54.637 106.135 55.2671 108.113C55.506 108.865 55.6005 109.638 55.6095 110.424C55.6294 112.17 55.6413 113.916 55.6592 115.662C55.6652 116.289 55.7369 116.401 56.3271 116.582C56.663 116.683 57.0056 116.759 57.3523 116.811C57.5424 116.841 57.624 116.916 57.6141 117.103L57.6161 117.275C57.6091 117.998 57.5593 118.031 56.8616 118.029C55.1914 118.026 53.5223 118.036 51.8521 118.05C51.3544 118.054 51.3534 118.069 51.3037 117.575L51.2937 117.291C51.3246 116.865 51.3345 116.869 51.7516 116.807C52.0323 116.765 52.3109 116.7 52.5847 116.628C52.8663 116.555 53.0017 116.346 53.0395 116.066C53.0584 115.924 53.0833 115.782 53.0823 115.64C53.0584 113.732 53.0893 111.822 52.9858 109.917C52.9022 108.376 51.7317 107.458 50.1919 107.563C49.4497 107.615 48.7362 107.872 48.1305 108.306C47.7195 108.595 47.6369 109.012 47.6388 109.461C47.6468 111.245 47.6637 113.029 47.6826 114.814C47.6866 115.205 47.6976 115.596 47.7344 115.984C47.7732 116.408 47.9215 116.579 48.3356 116.671C48.7317 116.759 49.1358 116.81 49.5588 116.881L49.5947 117.209C49.6086 117.974 49.529 118.031 48.7895 118.028C47.0625 118.021 45.3356 118.032 43.6097 118.051C43.338 118.055 43.2226 117.969 43.2295 117.703L43.2255 117.589C43.1807 116.9 43.2007 116.874 43.8496 116.762L44.1562 116.7C44.8589 116.541 45.039 116.353 45.049 115.636C45.0818 113.365 45.0938 111.095 45.1167 108.824C45.1197 108.498 44.9972 108.245 44.6947 108.11C44.27 107.923 43.843 107.742 43.4137 107.566C43.1768 107.468 42.906 107.406 42.8971 107.077C42.8911 106.845 43.138 106.64 43.4754 106.571C44.1532 106.433 44.837 106.318 45.5068 106.149C46.1737 105.982 46.8286 105.758 47.5592 105.538Z" fill="#4F372B"/>
<path fill-rule="evenodd" clip-rule="evenodd" d="M84.8994 111.47C84.8675 113.591 84.3191 115.306 82.8261 116.593C80.935 118.226 77.9848 118.781 75.5731 117.56C74.5439 117.039 73.7875 116.24 73.2948 115.203C72.5393 113.608 72.3502 111.931 72.7444 110.213C73.1345 108.514 74.1587 107.283 75.6916 106.486C77.2682 105.667 78.9284 105.347 80.6792 105.777C82.8938 106.32 84.4853 108.134 84.8018 110.444C84.8586 110.849 84.8805 111.259 84.8994 111.47ZM82.3344 112.619L82.2488 112.609C82.2488 112.409 82.2598 112.209 82.2468 112.009C82.1742 110.763 81.8955 109.576 81.1768 108.533C80.495 107.545 79.5664 106.962 78.3581 106.877C77.0054 106.781 75.8687 107.541 75.4696 108.929C74.8704 111.013 75.0735 113.044 76.1265 114.953C76.5854 115.785 77.2652 116.399 78.1759 116.722C79.9605 117.353 81.5431 116.536 82.0079 114.7C82.1791 114.022 82.2289 113.313 82.3344 112.619Z" fill="#4F382B"/>
<path fill-rule="evenodd" clip-rule="evenodd" d="M41.0586 111.634C41.0218 113.156 40.6645 114.563 39.7289 115.786C38.7266 117.096 37.349 117.796 35.7824 118.091C33.9301 118.439 32.1902 118.123 30.7022 116.874C29.9955 116.28 29.5128 115.519 29.1943 114.653C28.6717 113.233 28.5413 111.778 28.8628 110.295C29.2062 108.708 30.098 107.495 31.4805 106.681C33.079 105.742 34.804 105.323 36.6463 105.745C39.0152 106.289 40.3828 107.84 40.8884 110.188C40.99 110.662 41.0039 111.152 41.0586 111.634ZM38.4648 112.638L38.3961 112.628V112.342C38.3573 110.946 38.0856 109.616 37.2565 108.456C36.6423 107.595 35.8202 107.055 34.7661 106.904C33.0482 106.658 31.9255 107.682 31.5532 109.073C31.0675 110.89 31.2198 112.685 31.9712 114.408C32.44 115.482 33.1806 116.319 34.3182 116.725C36.0919 117.358 37.6984 116.52 38.1473 114.691C38.3125 114.022 38.3623 113.324 38.4648 112.638Z" fill="#4F372B"/>
<path fill-rule="evenodd" clip-rule="evenodd" d="M82.408 34.0439C83.6293 37.5909 84.5072 41.2119 84.7968 44.9639C85.1551 49.6199 84.9919 54.2439 84.0145 58.8229L83.8891 59.1889C83.5825 59.1899 83.27 59.1509 82.9704 59.1979C80.4392 59.5979 77.9111 60.0119 75.3819 60.4239C72.7672 60.8499 70.1505 61.2589 67.5407 61.7129C66.616 61.8729 65.4714 61.6819 65.0981 62.9659L64.919 63.0269L65.0454 55.3489L64.917 36.8229L66.1353 36.6129C68.1269 36.2859 70.1186 35.9529 72.1133 35.6339C74.4921 35.2549 76.8729 34.8849 79.2538 34.5149C80.3049 34.3529 81.3569 34.2019 82.408 34.0439Z" fill="#439934"/>
<path fill-rule="evenodd" clip-rule="evenodd" d="M62.4048 85.411C61.1198 84.301 59.7901 83.24 58.5588 82.072C51.9319 75.792 47.0836 68.399 44.6958 59.486C44.0379 57.034 43.6 54.541 43.4586 52.007C43.3591 50.233 43.2167 48.444 43.3422 46.679C43.6736 41.986 44.3494 37.338 45.719 32.817L45.7947 32.712C45.928 32.89 46.1191 33.048 46.1868 33.249C47.5246 37.205 48.8513 41.165 50.1721 45.128C54.3217 57.579 58.4663 70.033 62.6228 82.482C62.7044 82.725 62.9144 82.924 63.0657 83.143L62.4048 85.411Z" fill="#45A538"/>
<path fill-rule="evenodd" clip-rule="evenodd" d="M82.4077 34.044C81.3557 34.201 80.3036 34.353 79.2535 34.515C76.8727 34.885 74.4918 35.255 72.113 35.634C70.1193 35.952 68.1277 36.285 66.135 36.613L64.9167 36.823L64.9068 36.025C64.8659 35.369 64.7983 34.713 64.7893 34.057L64.6529 21.503C64.6211 18.884 64.5733 16.265 64.5206 13.647C64.4937 12.0198 64.4469 10.393 64.3802 8.76701C64.3404 7.89401 64.2001 7.02501 64.1443 6.15201C64.1115 5.65001 64.1553 5.14401 64.1662 4.64001C64.7873 5.84901 65.3955 7.06701 66.0335 8.26701C67.0417 10.164 68.6492 11.562 70.0974 13.087C75.8166 19.118 79.8766 26.126 82.4077 34.044Z" fill="#46A037"/>
<path fill-rule="evenodd" clip-rule="evenodd" d="M64.92 63.027L65.0992 62.966C65.4724 61.682 66.617 61.873 67.5417 61.713C70.1515 61.259 72.7682 60.85 75.3829 60.424C77.9121 60.013 80.4402 59.599 82.9714 59.198C83.271 59.151 83.5835 59.19 83.8901 59.189C83.4173 60.885 83.045 62.618 82.4448 64.267C81.763 66.137 80.9389 67.963 80.064 69.753C78.7534 72.4224 77.1319 74.9259 75.2336 77.211C73.7745 78.973 72.1481 80.604 70.5187 82.213C69.617 83.102 68.5559 83.827 67.5666 84.627L67.3098 84.451L66.3871 83.659L65.4326 81.555C64.7804 79.1015 64.4245 76.578 64.3726 74.039L64.3905 73.611L64.5209 71.757C64.5637 71.124 64.6214 70.492 64.6483 69.859C64.7438 67.583 64.8294 65.305 64.92 63.027Z" fill="#409433"/>
<path fill-rule="evenodd" clip-rule="evenodd" d="M64.9197 63.0271C64.8301 65.3051 64.7445 67.5841 64.648 69.8621C64.6211 70.4961 64.5644 71.1281 64.5206 71.7601L63.9393 71.9811C62.6474 68.1601 61.3544 64.3791 60.0904 60.5891C57.9992 54.3181 55.9338 48.0381 53.8456 41.7651C52.1594 36.7024 50.4613 31.6437 48.7515 26.5891C48.6709 26.3531 48.442 26.1671 48.2827 25.9581L52.0053 19.0811C52.1337 19.3041 52.3019 19.5131 52.3825 19.7531C54.1044 24.8731 55.8234 29.9941 57.5274 35.1201C59.745 41.7901 61.9477 48.4631 64.1633 55.1341C64.2519 55.4001 64.3972 55.6461 64.5365 55.9451L65.0461 55.3491L64.9197 63.0271Z" fill="#4FAA41"/>
<path fill-rule="evenodd" clip-rule="evenodd" d="M48.2818 25.958C48.442 26.167 48.671 26.353 48.7506 26.589C50.4606 31.6436 52.1586 36.7023 53.8447 41.765C55.9329 48.038 57.9982 54.318 60.0894 60.589C61.3535 64.379 62.6465 68.159 63.9384 71.981L64.5197 71.76L64.3893 73.614L64.2708 74.041C64.0688 76.07 63.8986 78.103 63.6517 80.128C63.5283 81.143 63.2646 82.139 63.0645 83.143C62.9142 82.924 62.7032 82.725 62.6216 82.482C58.4641 70.033 54.3205 57.579 50.1709 45.128C48.8507 41.1656 47.5223 37.2059 46.1856 33.249C46.1179 33.048 45.9268 32.89 45.7935 32.712L48.2818 25.958Z" fill="#4AA73C"/>
<path fill-rule="evenodd" clip-rule="evenodd" d="M65.0453 55.3489L64.5357 55.9449C64.3963 55.6459 64.251 55.3999 64.1624 55.1339C61.9468 48.4629 59.7441 41.7899 57.5265 35.1199C55.8205 29.9946 54.1055 24.8723 52.3816 19.7529C52.301 19.5129 52.1328 19.3039 52.0044 19.0809L56.6078 12.9969C56.7531 13.1909 56.9602 13.3639 57.0348 13.5829C58.3128 17.3429 59.5789 21.1059 60.839 24.8719C62.0155 28.3899 63.174 31.9119 64.3645 35.4239C64.4441 35.6589 64.7218 35.8249 64.9069 36.025L64.9169 36.823L65.0453 55.3489Z" fill="#57AE47"/>
<path fill-rule="evenodd" clip-rule="evenodd" d="M64.907 36.025C64.7209 35.826 64.4442 35.66 64.3646 35.424C63.1751 31.912 62.0156 28.39 60.8391 24.872C59.58 21.106 58.3119 17.3429 57.0349 13.583C56.9603 13.364 56.7532 13.191 56.6079 12.997C58.1049 11.524 59.5551 9.99799 61.1128 8.59299C62.4973 7.34499 63.6101 6.00699 63.6618 4.03399L63.7713 3.64099L64.1655 4.63899C64.1555 5.14299 64.1107 5.64899 64.1436 6.15099C64.2003 7.02399 64.3407 7.89299 64.3795 8.76599C64.4521 10.391 64.487 12.019 64.5198 13.646C64.5726 16.264 64.6204 18.883 64.6522 21.502L64.7886 34.056C64.7985 34.713 64.8672 35.369 64.907 36.025Z" fill="#60B24F"/>
<path fill-rule="evenodd" clip-rule="evenodd" d="M63.0688 83.142C63.2698 82.138 63.5348 81.142 63.6588 80.127C63.9068 78.103 64.0778 76.069 64.2808 74.04L64.3318 74.032L64.3818 74.041C64.434 76.58 64.7916 79.1034 65.4468 81.557C65.3118 81.735 65.1228 81.892 65.0508 82.092C64.4958 83.658 63.9718 85.237 63.4138 86.802C63.3378 87.016 63.1238 87.183 62.9748 87.37L62.4038 85.41L63.0688 83.142Z" fill="#A9AA88"/>
<path fill-rule="evenodd" clip-rule="evenodd" d="M62.9722 87.371C63.1212 87.183 63.3352 87.017 63.4112 86.803C63.9692 85.238 64.4932 83.659 65.0482 82.093C65.1192 81.893 65.3092 81.736 65.4442 81.558L66.4032 83.662C66.2142 83.93 65.9522 84.173 65.8472 84.472L64.0112 89.864C63.9352 90.081 63.6782 90.233 63.5042 90.416L62.9722 87.371Z" fill="#B6B598"/>
<path fill-rule="evenodd" clip-rule="evenodd" d="M63.5015 90.415C63.6745 90.232 63.9325 90.08 64.0085 89.863L65.8445 84.471C65.9485 84.172 66.2115 83.929 66.4005 83.661L67.3285 84.452C66.8805 84.895 66.6315 85.407 66.7815 86.054L66.4995 86.977C66.3715 87.135 66.1855 87.273 66.1225 87.454C65.4815 89.29 64.8705 91.136 64.2245 92.971C64.1425 93.203 63.9155 93.386 63.7565 93.592L63.5015 90.415Z" fill="#C2C1A7"/>
<path fill-rule="evenodd" clip-rule="evenodd" d="M63.7543 93.591C63.9143 93.385 64.1413 93.202 64.2223 92.97C64.8683 91.135 65.4803 89.289 66.1203 87.453C66.1833 87.272 66.3693 87.135 66.4973 86.976L66.1083 91.212C66.0043 91.332 65.8543 91.437 65.8043 91.576L64.5103 95.284C64.4193 95.537 64.2453 95.763 64.1093 96C63.9883 95.842 63.7723 95.689 63.7623 95.525C63.7243 94.883 63.7513 94.236 63.7543 93.591Z" fill="#CECDB7"/>
<path fill-rule="evenodd" clip-rule="evenodd" d="M64.1089 96.001C64.2449 95.764 64.4189 95.538 64.5099 95.285L65.8039 91.577C65.8539 91.437 66.0049 91.333 66.1079 91.213L66.1179 93.993L65.1869 96.38L64.1089 96.001Z" fill="#DBDAC7"/>
<path fill-rule="evenodd" clip-rule="evenodd" d="M65.1816 96.38L66.1126 93.993L66.3046 96.817L65.1816 96.38Z" fill="#EBE9DC"/>
<path fill-rule="evenodd" clip-rule="evenodd" d="M66.7655 86.054C66.6165 85.408 66.8645 84.896 67.3125 84.452L67.5705 84.628L66.7655 86.054Z" fill="#CECDB7"/>
<path fill-rule="evenodd" clip-rule="evenodd" d="M64.373 74.042L64.323 74.033L64.272 74.041L64.391 73.614L64.373 74.042Z" fill="#4FAA41"/>
</svg>
