<svg width="128" height="129" viewBox="0 0 128 129" fill="none" xmlns="http://www.w3.org/2000/svg">
<path d="M2.01906 90.958H6.10789V74.735L12.4382 88.878C13.1847 90.59 14.2069 91.195 16.2125 91.195C18.2181 91.195 19.2015 90.59 19.948 88.878L26.2783 74.735V90.958H30.3672V74.762C30.3672 73.182 29.7381 72.417 28.4402 72.023C25.3338 71.049 23.2495 71.892 22.3059 73.999L16.0941 87.957L10.0793 73.998C9.17451 71.892 7.05147 71.049 3.94503 72.022C2.64712 72.417 2.01807 73.181 2.01807 74.761V90.958H2.01906ZM33.7682 77.752H37.856V86.69C37.8182 87.175 38.0113 88.315 40.2508 88.351C41.3935 88.369 49.0715 88.351 49.1431 88.351V77.708H53.2409C53.2598 77.708 53.2369 92.222 53.2369 92.282C53.2588 95.862 48.8167 96.639 46.7683 96.699H33.8568V93.935C33.8787 93.935 46.7593 93.938 46.7912 93.934C49.4238 93.655 49.1123 92.341 49.1113 91.899V90.821H40.421C36.378 90.784 33.8021 89.011 33.7692 86.971C33.7672 86.784 33.8578 77.842 33.7682 77.752Z" fill="#00618A"/>
<path d="M56.3931 90.9579H68.15C69.5265 90.9579 70.8642 90.6689 71.9253 90.1689C73.694 89.3529 74.5589 88.2469 74.5589 86.7969V83.7949C74.5589 82.6099 73.5765 81.5029 71.6496 80.7669C70.6273 80.3709 69.3682 80.1619 68.149 80.1619H63.1942C61.5429 80.1619 60.7566 79.6619 60.5605 78.5559C60.5217 78.4239 60.5217 78.3189 60.5217 78.1869V76.3169C60.5217 76.2119 60.5217 76.1059 60.5605 75.9749C60.7566 75.1319 61.1896 74.8949 62.6448 74.7629L63.0379 74.7369H74.7162V71.9989H63.235C61.5837 71.9989 60.7188 72.104 59.9325 72.341C57.4949 73.1049 56.4319 74.3159 56.4319 76.4229V78.8189C56.4319 80.6629 58.5171 82.2429 62.0157 82.6119C62.4099 82.6369 62.802 82.6649 63.1952 82.6649H67.4423C67.5995 82.6649 67.7568 82.6649 67.8752 82.6899C69.1732 82.7949 69.7226 83.0329 70.1167 83.5059C70.2177 83.5997 70.2979 83.7138 70.3519 83.8408C70.406 83.9678 70.4327 84.1048 70.4303 84.2429V86.6399C70.4303 86.9289 70.2342 87.2979 69.841 87.6139C69.4877 87.9299 68.8975 88.1409 68.1111 88.1939L67.6782 88.2199H56.3931V90.9579ZM100.069 86.1919C100.069 89.0089 102.154 90.5889 106.36 90.9059C106.753 90.9319 107.146 90.9579 107.539 90.9579H118.195V88.2199H107.462C105.063 88.2199 104.159 87.6139 104.159 86.1649V71.9969H100.07V86.1919H100.069ZM77.1687 86.3339V76.5689C77.1687 74.0889 78.9026 72.5839 82.3305 72.1089C82.6958 72.0563 83.0643 72.0299 83.4333 72.0299H91.1959C91.5901 72.0299 91.9444 72.0559 92.3376 72.1089C95.7655 72.5839 97.5004 74.0879 97.5004 76.5689V86.3339C97.5004 88.3479 96.7638 89.4239 95.0668 90.1259L99.0959 93.7789H94.3472L91.0884 90.8229L87.8078 91.0319H83.4333C82.6207 91.0267 81.8125 90.9114 81.0306 90.6889C78.4298 89.9769 77.1687 88.6039 77.1687 86.3339ZM81.582 86.0969C81.582 86.2289 81.6208 86.3619 81.6606 86.5199C81.8965 87.6549 82.9615 88.2879 84.576 88.2879H88.2905L84.8785 85.1929H89.6273L92.6023 87.8929C93.1518 87.5979 93.5121 87.1499 93.6385 86.5729C93.6773 86.4409 93.6773 86.3089 93.6773 86.1769V76.8089C93.6773 76.7039 93.6773 76.5709 93.6385 76.4389C93.4016 75.3829 92.3376 74.7769 90.762 74.7769H84.575C82.7635 74.7769 81.581 75.5689 81.581 76.8089V86.0969H81.582Z" fill="#E48E00"/>
<path d="M121.793 67.452C119.28 67.383 117.36 67.618 115.717 68.313C115.25 68.511 114.507 68.516 114.431 69.103C114.687 69.374 114.727 69.777 114.931 70.109C115.323 70.746 115.985 71.6 116.575 72.047C117.219 72.536 117.884 73.06 118.577 73.484C119.806 74.238 121.18 74.668 122.365 75.422C123.063 75.868 123.756 76.428 124.437 76.931C124.775 77.178 125 77.565 125.439 77.72V77.649C125.209 77.355 125.149 76.951 124.938 76.643L124.008 75.709C123.1 74.497 121.947 73.434 120.72 72.55C119.742 71.845 117.555 70.892 117.147 69.749L117.075 69.678C117.768 69.599 118.58 69.347 119.219 69.175C120.294 68.885 121.254 68.96 122.364 68.672L123.865 68.24V67.954C123.305 67.376 122.904 66.61 122.292 66.087C120.693 64.718 118.945 63.35 117.147 62.208C116.149 61.576 114.916 61.165 113.858 60.629C113.504 60.448 112.879 60.355 112.643 60.054C112.086 59.343 111.785 58.442 111.356 57.613C110.439 55.8221 109.581 54.0018 108.783 52.155C108.241 50.91 107.887 49.682 107.211 48.565C103.965 43.204 100.472 39.968 95.06 36.788C93.9084 36.111 92.5219 35.845 91.0578 35.496L88.6989 35.352C88.2201 35.151 87.7205 34.561 87.2696 34.275C85.476 33.137 80.8775 30.662 79.5498 33.917C78.7117 35.971 80.8039 37.975 81.5514 39.016C82.0759 39.746 82.7488 40.564 83.124 41.385C83.3708 41.925 83.4126 42.466 83.6247 43.037C84.1432 44.443 84.5961 45.974 85.268 47.273C85.6074 47.931 85.9826 48.624 86.4116 49.212C86.6744 49.572 87.1262 49.732 87.1969 50.289C86.756 50.909 86.7301 51.873 86.4823 52.658C85.3655 56.197 85.7865 60.596 87.4119 63.215C87.9106 64.02 89.0851 65.744 90.6995 65.082C92.1119 64.504 91.7973 62.713 92.2015 61.132C92.293 60.775 92.2363 60.511 92.4154 60.271V60.343L93.7024 62.928C94.6549 64.469 96.344 66.078 97.7763 67.165C98.5188 67.728 99.1041 68.703 100.064 69.032V68.959H99.9929C99.8058 68.668 99.5162 68.548 99.2773 68.313C98.7179 67.762 98.0958 67.078 97.634 66.446C96.3311 64.67 95.1805 62.725 94.1314 60.701C93.6307 59.735 93.1958 58.669 92.7738 57.685C92.6105 57.306 92.6125 56.732 92.2741 56.537C91.8103 57.257 91.1305 57.84 90.7721 58.691C90.2008 60.051 90.1272 61.71 89.9152 63.43L89.7718 63.501C88.7755 63.26 88.4261 62.23 88.0559 61.347C87.1203 59.114 86.9461 55.517 87.7702 52.946C87.9832 52.28 88.9457 50.185 88.5555 49.57C88.3694 48.957 87.7553 48.603 87.4129 48.133C86.9637 47.5041 86.5804 46.8301 86.2693 46.122C85.5029 44.381 85.1455 42.426 84.3403 40.665C83.9541 39.823 83.3032 38.972 82.7677 38.224C82.1754 37.394 81.5116 36.784 81.0517 35.782C80.8885 35.426 80.6665 34.855 80.9084 34.489C80.985 34.242 81.0955 34.139 81.3384 34.058C81.7524 33.737 82.907 34.165 83.339 34.345C84.4856 34.824 85.4421 35.279 86.4136 35.925C86.8794 36.236 87.3502 36.836 87.9145 37.002H88.5575C89.5638 37.234 90.6915 37.073 91.6311 37.36C93.2933 37.868 94.7824 38.657 96.134 39.515C100.254 42.129 103.621 45.849 105.926 50.287C106.296 51.002 106.458 51.683 106.783 52.441C107.442 53.969 108.272 55.542 108.927 57.037C109.581 58.528 110.219 60.033 111.144 61.274C111.629 61.926 113.507 62.276 114.36 62.638C114.958 62.892 115.937 63.157 116.504 63.499C117.585 64.155 118.635 64.936 119.649 65.654C120.155 66.016 121.715 66.803 121.793 67.452ZM89.8435 40.093C89.4102 40.0858 88.9777 40.1342 88.5565 40.237V40.308H88.6282C88.878 40.825 89.319 41.157 89.6285 41.601L90.3442 43.109L90.4148 43.038C90.8577 42.725 91.0598 42.224 91.0578 41.458C90.8796 41.27 90.8538 41.035 90.7005 40.812C90.4974 40.512 90.1013 40.344 89.8435 40.093Z" fill="#00618A"/>
</svg>
