<svg width="128" height="129" viewBox="0 0 128 129" fill="none" xmlns="http://www.w3.org/2000/svg">
<path d="M114.013 81.249C113.725 81.249 113.438 81.173 113.185 81.025L110.548 79.457C110.153 79.236 110.345 79.157 110.476 79.112C111.001 78.928 111.108 78.885 111.668 78.567C111.727 78.534 111.804 78.546 111.864 78.582L113.89 79.791C113.927 79.8112 113.97 79.8218 114.012 79.8218C114.055 79.8218 114.097 79.8112 114.135 79.791L122.035 75.21C122.072 75.188 122.103 75.1565 122.124 75.1188C122.145 75.0811 122.156 75.0384 122.156 74.995V65.835C122.156 65.791 122.145 65.7478 122.123 65.7094C122.102 65.671 122.071 65.6389 122.034 65.616L114.137 61.039C114.099 61.0184 114.057 61.0075 114.015 61.0075C113.972 61.0075 113.93 61.0184 113.893 61.039L105.997 65.617C105.959 65.6398 105.928 65.6717 105.907 65.7099C105.885 65.748 105.873 65.7911 105.872 65.835V74.995C105.872 75.083 105.921 75.166 105.997 75.207L108.161 76.464C109.335 77.053 110.055 76.359 110.055 75.661V66.616C110.055 66.489 110.157 66.388 110.284 66.388H111.286C111.41 66.388 111.514 66.489 111.514 66.616V75.661C111.514 77.235 110.661 78.138 109.175 78.138C108.718 78.138 108.359 78.138 107.355 77.642L105.284 76.444C105.032 76.2965 104.823 76.0851 104.678 75.831C104.533 75.577 104.456 75.2891 104.456 74.996V65.836C104.456 65.241 104.772 64.686 105.284 64.39L113.184 59.803C113.439 59.6638 113.724 59.5908 114.014 59.5908C114.304 59.5908 114.589 59.6638 114.843 59.803L122.743 64.39C123.255 64.687 123.572 65.242 123.572 65.836V74.996C123.572 75.2891 123.495 75.5769 123.35 75.8309C123.204 76.0849 122.995 76.2963 122.743 76.444L114.843 81.026C114.591 81.173 114.305 81.25 114.013 81.249ZM116.455 74.938C112.996 74.938 112.272 73.343 112.272 72.006C112.273 71.9452 112.297 71.887 112.34 71.844C112.383 71.8011 112.441 71.777 112.501 71.777H113.523C113.577 71.7768 113.63 71.7963 113.672 71.8319C113.713 71.8674 113.741 71.9168 113.749 71.971C113.903 73.016 114.364 73.543 116.455 73.543C118.118 73.543 118.827 73.165 118.827 72.277C118.827 71.765 118.626 71.386 116.04 71.131C113.878 70.916 112.541 70.437 112.541 68.698C112.541 67.097 113.885 66.141 116.136 66.141C118.667 66.141 119.92 67.024 120.078 68.918C120.08 68.9499 120.076 68.9819 120.066 69.0122C120.056 69.0425 120.039 69.0703 120.018 69.094C119.996 69.1168 119.971 69.135 119.942 69.1475C119.913 69.16 119.882 69.1667 119.851 69.167H118.825C118.773 69.1671 118.723 69.1494 118.682 69.1168C118.642 69.0843 118.614 69.0388 118.603 68.988C118.356 67.888 117.759 67.537 116.135 67.537C114.319 67.537 114.108 68.174 114.108 68.649C114.108 69.226 114.357 69.394 116.81 69.72C119.238 70.043 120.391 70.499 120.391 72.214C120.392 73.947 118.957 74.938 116.455 74.938Z" fill="#83CD29"/>
<path d="M97.7465 68.93C98.058 68.747 98.2501 68.413 98.2501 68.05V65.696C98.2501 65.334 98.059 65 97.7465 64.817L89.4215 59.961C89.2676 59.871 89.0927 59.8235 88.9147 59.8231C88.7366 59.8228 88.5615 59.8696 88.4073 59.959L80.0305 64.818C79.8769 64.9073 79.7494 65.0356 79.6606 65.19C79.5719 65.3445 79.5251 65.5196 79.5249 65.698V75.414C79.5249 75.779 79.72 76.1169 80.0365 76.2979L88.3605 81.063C88.667 81.24 89.0433 81.241 89.3528 81.069L94.3872 78.257C94.4656 78.2133 94.531 78.1494 94.5767 78.072C94.6225 77.9945 94.6469 77.9063 94.6475 77.8162C94.6481 77.7262 94.6249 77.6376 94.5802 77.5595C94.5355 77.4814 94.471 77.4167 94.3932 77.372L85.9647 72.512C85.8874 72.4677 85.8231 72.4037 85.7784 72.3264C85.7336 72.2491 85.71 72.1614 85.7099 72.072V69.026C85.7099 68.844 85.8064 68.677 85.9627 68.587L88.5874 67.067C88.6641 67.0223 88.7511 66.9987 88.8397 66.9987C88.9284 66.9987 89.0154 67.0223 89.092 67.067L91.7167 68.587C91.7937 68.6313 91.8577 68.6952 91.9023 68.7722C91.9468 68.8493 91.9704 68.9368 91.9706 69.026V71.4219C91.97 71.5115 91.9931 71.5997 92.0376 71.6774C92.082 71.7551 92.1461 71.8196 92.2233 71.8643C92.3006 71.909 92.3883 71.9323 92.4775 71.9319C92.5666 71.9315 92.6541 71.9074 92.731 71.862L97.7465 68.93Z" fill="#404137"/>
<path d="M88.7984 68.474C88.8282 68.4573 88.8618 68.4486 88.8959 68.4486C88.9301 68.4486 88.9636 68.4573 88.9934 68.474L90.6084 69.407C90.6684 69.442 90.7054 69.507 90.7054 69.576V71.441C90.7054 71.511 90.6684 71.575 90.6084 71.61L88.9934 72.542C88.9638 72.5592 88.9302 72.5683 88.8959 72.5683C88.8617 72.5683 88.828 72.5592 88.7984 72.542L87.1844 71.61C87.1546 71.593 87.1298 71.5684 87.1126 71.5387C87.0954 71.509 87.0864 71.4753 87.0864 71.441V69.576C87.0864 69.507 87.1234 69.442 87.1844 69.407L88.7984 68.474Z" fill="#83CD29"/>
<path d="M66.9916 72.354C66.9916 72.444 66.9438 72.528 66.8652 72.574L63.9887 74.24C63.9503 74.2626 63.9067 74.2745 63.8623 74.2745C63.8178 74.2745 63.7742 74.2626 63.7358 74.24L60.8593 72.574C60.821 72.5516 60.7891 72.5196 60.7669 72.481C60.7447 72.4424 60.733 72.3986 60.7329 72.354V69.016C60.7329 68.926 60.7817 68.841 60.8593 68.795L63.7358 67.127C63.7742 67.1039 63.8181 67.0917 63.8628 67.0917C63.9075 67.0917 63.9513 67.1039 63.9897 67.127L66.8672 68.795C66.9053 68.8178 66.9369 68.8502 66.9589 68.8889C66.9808 68.9276 66.9925 68.9714 66.9926 69.016V72.354H66.9916ZM67.7689 47.638C67.6918 47.5957 67.6051 47.5741 67.5172 47.5755C67.4293 47.5769 67.3433 47.6011 67.2675 47.6458C67.1917 47.6905 67.1287 47.7542 67.0847 47.8307C67.0408 47.9071 67.0172 47.9937 67.0165 48.082V60.997C67.0162 61.0593 66.9998 61.1204 66.969 61.1744C66.9381 61.2284 66.8937 61.2734 66.8403 61.305C66.7863 61.336 66.7253 61.3522 66.6631 61.3522C66.601 61.3522 66.5399 61.336 66.486 61.305L64.3878 60.09C64.2341 60.0011 64.06 59.9543 63.8827 59.9543C63.7054 59.9543 63.5312 60.0011 63.3775 60.09L54.9988 64.948C54.8449 65.0373 54.717 65.1657 54.6281 65.3204C54.5392 65.475 54.4923 65.6504 54.4922 65.829V75.548C54.4922 75.911 54.6853 76.246 54.9978 76.429L63.3765 81.29C63.6891 81.472 64.0753 81.472 64.3888 81.29L72.7695 76.429C72.9231 76.3394 73.0507 76.2109 73.1394 76.0563C73.2281 75.9017 73.2749 75.7265 73.2751 75.548V51.321C73.2751 50.953 73.0761 50.613 72.7566 50.433L67.7689 47.638Z" fill="#404137"/>
<path d="M38.2813 59.9071C38.4349 59.8177 38.6093 59.7706 38.7869 59.7706C38.9644 59.7706 39.1389 59.8177 39.2925 59.9071L47.6712 64.7641C47.9838 64.9461 48.1769 65.2821 48.1769 65.6451V75.3671C48.1769 75.7301 47.9838 76.0661 47.6712 76.2481L39.2935 81.1091C39.1395 81.198 38.965 81.2448 38.7874 81.2448C38.6098 81.2448 38.4352 81.198 38.2813 81.1091L29.9055 76.2481C29.7519 76.1585 29.6244 76.03 29.5356 75.8754C29.4469 75.7208 29.4001 75.5455 29.3999 75.3671V65.6441C29.3999 65.2821 29.593 64.9461 29.9055 64.7641L38.2813 59.9071Z" fill="#83CD29"/>
<path d="M23.0445 65.564C23.0445 65.198 22.8534 64.862 22.5389 64.681L14.1631 59.838C14.0225 59.756 13.8638 59.7103 13.7013 59.705H13.6147C13.4522 59.7105 13.2936 59.7561 13.1529 59.838L4.77616 64.681C4.62206 64.7706 4.49413 64.8993 4.4052 65.0543C4.31628 65.2093 4.26949 65.3851 4.26953 65.564L4.28745 78.604C4.28745 78.7859 4.382 78.955 4.54026 79.043C4.61604 79.0891 4.70296 79.1135 4.79158 79.1135C4.8802 79.1135 4.96713 79.0891 5.04291 79.043L10.0196 76.179C10.3341 75.991 10.5262 75.66 10.5262 75.297V69.205C10.5262 68.841 10.7173 68.506 11.0308 68.324L13.1509 67.098C13.3041 67.0075 13.4788 66.9602 13.6565 66.961C13.8297 66.961 14.0069 67.005 14.1612 67.098L16.2792 68.324C16.5928 68.506 16.7858 68.841 16.7858 69.205V75.297C16.7858 75.66 16.9799 75.993 17.2925 76.179L22.2691 79.043C22.3459 79.087 22.4328 79.1101 22.5212 79.1099C22.6096 79.1097 22.6963 79.0862 22.7729 79.0418C22.8494 78.9973 22.913 78.9335 22.9574 78.8567C23.0017 78.7799 23.0252 78.6928 23.0256 78.604L23.0445 65.564Z" fill="#404137"/>
</svg>
