<svg width="128" height="129" viewBox="0 0 128 129" fill="none" xmlns="http://www.w3.org/2000/svg">
<path d="M63.7151 57.2999C68.8274 57.2999 72.9717 53.1362 72.9717 48C72.9717 42.8637 68.8274 38.7 63.7151 38.7C58.6028 38.7 54.4585 42.8637 54.4585 48C54.4585 53.1362 58.6028 57.2999 63.7151 57.2999Z" fill="#61DAFB"/>
<path d="M63.7152 82.2C70.9812 89.3 78.1476 93.5 83.9205 93.5C85.8116 93.5 87.6032 93.1 89.0962 92.2C94.272 89.2 96.1631 81.7 94.3715 71C94.0729 69.1 93.6748 67.2 93.1771 65.2C95.1678 64.6 96.9594 64 98.751 63.4C108.804 59.5 114.378 54.1 114.378 48.2C114.378 42.2 108.804 36.8 98.751 33C96.9594 32.3 95.1678 31.7 93.1771 31.2C93.6748 29.2 94.0729 27.3 94.3715 25.4C96.0636 14.5 94.1724 6.89998 88.9967 3.89998C87.5037 2.99998 85.7121 2.59998 83.821 2.59998C78.1476 2.59998 70.8816 6.79997 63.6157 13.9C56.4493 6.79997 49.2829 2.59998 43.5099 2.59998C41.6188 2.59998 39.8272 2.99998 38.3342 3.89998C33.1585 6.89998 31.2673 14.4 33.0589 25.1C33.3575 27 33.7557 28.9 34.2533 30.9C32.2627 31.5 30.4711 32.1 28.6795 32.7C18.6266 36.6 13.0527 42 13.0527 47.9C13.0527 53.9 18.6266 59.3 28.6795 63.1C30.4711 63.8 32.2627 64.4 34.2533 64.9C33.7557 66.9 33.3575 68.8 33.0589 70.7C31.3669 81.4 33.258 89 38.3342 91.9C39.8272 92.8 41.6188 93.2 43.5099 93.2C49.2829 93.4 56.4493 89.2 63.7152 82.2ZM58.1414 68.7C59.933 68.8 61.8241 68.8 63.7152 68.8C65.6064 68.8 67.4975 68.8 69.2891 68.7C67.4975 71.1 65.6064 73.3 63.7152 75.4C61.8241 73.3 59.933 71.1 58.1414 68.7ZM45.7992 58.4C46.7946 60.1 47.6904 61.7 48.7852 63.3C45.6997 62.9 42.8132 62.4 40.0263 61.8C40.9221 59.1 41.9174 56.3 43.1118 53.5C43.9081 55.1 44.8039 56.8 45.7992 58.4ZM40.0263 34.3C42.8132 33.7 45.6997 33.2 48.7852 32.8C47.7899 34.4 46.7946 36 45.7992 37.7C44.8039 39.4 43.9081 41 43.1118 42.7C41.8179 39.8 40.8225 37 40.0263 34.3ZM45.5006 48C46.7945 45.3 48.188 42.6 49.7806 39.9C51.2736 37.3 52.9656 34.7 54.6577 32.1C57.6437 31.9 60.6297 31.8 63.7152 31.8C66.9003 31.8 69.8863 31.9 72.7728 32.1C74.5644 34.7 76.1569 37.3 77.6499 39.9C79.2424 42.6 80.6359 45.3 81.9298 48C80.6359 50.7 79.2424 53.4 77.6499 56.1C76.1569 58.7 74.4648 61.3 72.7728 63.9C69.7868 64.1 66.8008 64.2 63.7152 64.2C60.5302 64.2 57.5442 64.1 54.6577 63.9C52.8661 61.3 51.2736 58.7 49.7806 56.1C48.188 53.4 46.7945 50.7 45.5006 48ZM84.4182 42.6L81.7308 37.6C80.7354 35.9 79.8396 34.3 78.7448 32.7C81.8303 33.1 84.7168 33.6 87.5037 34.2C86.6079 37 85.6126 39.8 84.4182 42.6ZM84.4182 53.4C85.6126 56.2 86.6079 59 87.5037 61.7C84.7168 62.3 81.8303 62.8 78.7448 63.2C79.7401 61.6 80.7354 60 81.7308 58.3C82.6266 56.8 83.5224 55.1 84.4182 53.4ZM86.7074 88.1C85.9112 88.6 84.9158 88.8 83.821 88.8C78.9438 88.8 72.8723 84.8 66.9003 78.8C69.7868 75.7 72.5737 72.2 75.3606 68.3C80.0387 67.9 84.5177 67.2 88.6981 66.2C89.1958 68 89.4944 69.8 89.793 71.6C91.1864 80.1 90.0916 86.2 86.7074 88.1ZM91.8832 35.4C103.031 38.6 109.7 43.5 109.7 48C109.7 51.9 105.121 55.8 97.0589 58.9C95.4664 59.5 93.6748 60.1 91.8832 60.6C90.5892 56.5 88.9967 52.3 87.006 48C88.9967 43.7 90.6888 39.5 91.8832 35.4ZM83.9205 7.19998C85.0154 7.19998 85.9112 7.39998 86.807 7.89998C90.0916 9.79998 91.286 15.8 89.8925 24.4C89.5939 26.1 89.1958 27.9 88.7976 29.8C84.6172 28.9 80.1382 28.2 75.4602 27.7C72.7728 23.8 69.8863 20.3 66.9998 17.2C72.9718 11.3 79.0434 7.19998 83.9205 7.19998ZM69.2891 27.3C67.4975 27.2 65.6064 27.2 63.7152 27.2C61.8241 27.2 59.933 27.2 58.1414 27.3C59.933 24.9 61.8241 22.7 63.7152 20.6C65.6064 22.7 67.4975 25 69.2891 27.3ZM40.723 7.89998C41.5193 7.39998 42.5146 7.19998 43.6095 7.19998C48.4866 7.19998 54.5582 11.2 60.5302 17.2C57.6437 20.3 54.8568 23.8 52.0698 27.7C47.3917 28.1 42.9127 28.8 38.7323 29.8C38.2347 28 37.9361 26.2 37.6375 24.4C36.244 15.9 37.3389 9.89998 40.723 7.89998ZM35.5473 60.6C24.3995 57.4 17.7308 52.5 17.7308 48C17.7308 44.1 22.3093 40.2 30.3715 37.1C31.9641 36.5 33.7557 35.9 35.5473 35.4C36.8412 39.5 38.4337 43.7 40.4244 48C38.4337 52.3 36.7417 56.6 35.5473 60.6ZM37.6375 71.6C37.9361 69.9 38.3342 68.1 38.7323 66.2C42.9127 67.1 47.3917 67.8 52.0698 68.3C54.7572 72.2 57.6437 75.7 60.5302 78.8C54.5582 84.7 48.4866 88.8 43.6095 88.8C42.5146 88.8 41.6188 88.6 40.723 88.1C37.3389 86.2 36.244 80.1 37.6375 71.6ZM33.4571 112.8C35.6468 110.1 35.7463 107.1 34.5519 104.1C33.3575 101.1 30.8692 99.7 27.7837 99.6C24.1009 99.5 20.3187 99.6 16.6359 99.6H15.9392V125.5H18.9252V115.7H23.6033C24.2005 115.7 24.6981 115.9 24.9967 116.4L30.9687 125.7C31.0683 125.9 31.3669 126.2 31.5659 126.2H35.4477C33.0589 122.5 30.7697 119 28.3809 115.4C30.4711 115.1 32.2627 114.4 33.4571 112.8ZM18.9252 112.6V102.7H20.0201C22.3093 102.7 24.6981 102.6 26.9874 102.8C29.6748 102.9 31.5659 105 31.5659 107.7C31.5659 110.4 29.3762 112.5 26.6888 112.6C24.3 112.7 21.9112 112.6 18.9252 112.6ZM57.4446 113.9C55.8521 106.9 49.4819 105.1 44.6048 107.3C40.8225 109 39.1305 112.3 39.0309 116.4C38.9314 119.5 39.8272 122.3 42.216 124.4C44.9034 126.8 48.188 127.1 51.5721 126.5C53.4633 126.1 55.1554 125.2 56.4493 123.8C55.9516 123.1 55.454 122.4 54.9563 121.8C52.1693 124.2 49.0838 125 45.6997 123.4C43.51 122.3 42.4151 119.6 42.216 117.6H57.6437V116.3C57.7432 115.4 57.6437 114.6 57.4446 113.9ZM42.4151 115.5C42.1165 112.5 45.1025 109.3 48.3871 109.3C52.1694 109.2 54.5582 111.5 54.6577 115.5H42.4151ZM72.9718 106.8C71.4788 106.5 69.8863 106.4 68.3933 106.5C66.0045 106.7 63.9143 107.8 62.2222 109.6C62.7199 110.3 63.118 111 63.7152 111.8C63.9143 111.6 64.1134 111.4 64.3124 111.3C65.905 109.8 67.7961 109 70.0854 109.2C71.877 109.3 73.569 109.9 74.0667 111.7C74.4648 113.1 74.3653 114.6 74.4648 116.1C74.1662 116.1 74.0667 116 73.9672 115.9C71.5784 113.9 68.891 113.5 66.0045 114.2C63.3171 114.9 61.625 117 61.426 119.7C61.2269 122.8 62.6204 125.1 65.3078 126.2C66.9998 126.9 68.891 126.9 70.6826 126.5C72.076 126.2 72.6732 125.4 74.6639 124.3V125.6H77.4508C77.4508 121.6 77.5504 116.7 77.4508 112.1C77.4508 109.2 75.7588 107.4 72.9718 106.8ZM74.3653 119.4C74.2658 119.7 74.3653 120 74.3653 120.3C74.3653 122.4 73.8676 123.1 71.877 123.9C70.4835 124.4 68.9905 124.6 67.4975 124.1C65.8054 123.6 64.611 122.1 64.611 120.4C64.5115 118.7 65.6064 117 67.2984 116.5C69.5877 115.7 71.6779 116.2 73.569 117.6C74.1662 118.1 74.5644 118.6 74.3653 119.4ZM89.8925 109.5C92.4804 108.7 94.8692 109.2 96.6608 111.4L96.9594 111.6C97.6561 111 98.2533 110.4 99.0496 109.7C98.751 109.4 98.6514 109.2 98.4524 108.9C95.5659 105.8 89.8925 105.4 86.4088 107.9C81.5317 111.5 81.6312 118.5 84.02 122.2C86.3093 125.7 89.5939 126.9 93.4757 126.4C95.765 126.1 97.6561 125 99.1491 123.1C98.4524 122.5 97.7556 121.9 97.0589 121.2C96.8598 121.4 96.7603 121.5 96.6608 121.7C93.9734 124.7 89.4944 124.4 87.1056 121.2C85.7121 119.3 85.4135 117.1 85.8116 114.9C86.0107 112.4 87.3046 110.4 89.8925 109.5ZM110.595 123.1C110.396 123.2 110.297 123.3 110.297 123.3C109.501 123.9 108.704 124 107.809 123.7C106.913 123.3 106.813 122.5 106.714 121.7V110.3C106.714 110.1 106.714 110.5 106.813 109.5H110.595V106.5H106.614V101.5H103.628V106.9H101.04C100.841 106.9 100.543 107.1 100.543 107.3C100.443 108 100.543 108.5 100.543 109.5H103.728V122.3C103.728 123.9 104.126 125.3 105.519 126.1C107.012 127 109.899 126.8 111.193 125.7C111.392 125.6 111.491 125.2 111.491 125.1C111.193 124.5 110.894 123.8 110.595 123.1Z" fill="#61DAFB"/>
</svg>
