<svg width="128" height="129" viewBox="0 0 128 129" fill="none" xmlns="http://www.w3.org/2000/svg">
<g clip-path="url(#clip0_21_49)">
<path d="M88.6929 88.61C79.7349 107.01 64.0484 119.39 43.2957 123.46C40.1137 124.243 36.8472 124.626 33.5713 124.6C21.6273 124.6 10.6786 119.6 5.36351 111.41C-1.77304 100.5 -4.20165 77.37 19.328 60.26C19.8058 62.87 20.7812 66.45 21.4282 68.57C16.8092 72.0177 13.0283 76.4727 10.37 81.6C5.99057 90.24 6.47828 98.87 11.664 106.85C15.2472 112.23 20.9206 115.5 28.2164 116.5C37.329 117.659 46.5736 115.91 54.6425 111.5C67.2932 104.82 75.7237 96.84 81.2378 85.93C79.6786 84.3111 78.7557 82.1797 78.64 79.93C78.5566 77.5159 79.43 75.1671 81.0684 73.3992C82.7068 71.6313 84.9763 70.5886 87.379 70.5H87.7174C90.0544 70.4882 92.3065 71.3795 94.0077 72.9895C95.7088 74.5994 96.7289 76.8048 96.8567 79.1493C96.9846 81.4937 96.2105 83.7979 94.6946 85.5849C93.1787 87.372 91.0371 88.5051 88.7128 88.75L88.6929 88.61ZM117.229 68.41C129.382 82.25 129.711 98.54 125.013 107.99C120.633 116.62 109.087 125.26 93.5601 125.26C86.3117 125.111 79.1811 123.389 72.658 120.21C74.9374 118.58 78.1722 115.97 79.9538 114.34C84.9841 116.529 90.3976 117.692 95.8792 117.76C105.932 117.76 113.546 113.04 118.085 104.41C121.001 98.71 121.171 92.03 118.414 85.19C115.03 76.5838 109.01 69.2818 101.224 64.34C91.0087 57.4214 78.9659 53.7332 66.6462 53.75H63.7299C63.0498 55.3283 61.9435 56.6837 60.5363 57.6628C59.129 58.6419 57.4769 59.2056 55.7672 59.29H55.4587C53.0939 59.2608 50.8336 58.3065 49.1579 56.6299C47.4822 54.9533 46.5231 52.6864 46.4842 50.3107C46.4453 47.935 47.3298 45.6377 48.9498 43.9067C50.5697 42.1756 52.7975 41.1473 55.1601 41.04H55.4885C57.1349 41.0412 58.749 41.4983 60.1537 42.3609C61.5584 43.2236 62.6994 44.4585 63.4512 45.93H66.049C86.752 45.93 104.927 53.91 117.229 68.41ZM34.8652 91.41C34.6948 89.7494 35.0952 88.0802 35.9999 86.68C26.9224 70.88 22.0652 50.85 29.5203 30C34.8652 14.33 48.3221 3.73999 62.9137 3.73999C78.4807 3.73999 94.6947 17.43 96.6356 43.81C94.207 43 90.6636 41.81 88.5336 41.37C88.0061 32.74 80.7501 11.24 63.5607 11.56C57.3996 11.73 48.3221 14.66 43.654 20.68C37.8797 27.8662 34.5206 36.706 34.059 45.93C32.9648 58.5777 35.9184 71.2461 42.4895 82.09C42.8522 81.9568 43.2389 81.9023 43.6241 81.93H43.9426C46.3501 81.8862 48.6763 82.8051 50.4095 84.4845C52.1426 86.1639 53.1408 88.4662 53.1843 90.885C53.2279 93.3038 52.3133 95.6409 50.6417 97.3821C48.9702 99.1234 46.6786 100.126 44.2711 100.17H43.9426C41.594 100.162 39.3391 99.2429 37.648 97.6054C35.9569 95.9678 34.9601 93.7378 34.8652 91.38V91.41Z" fill="#764ABC"/>
</g>
<defs>
<clipPath id="clip0_21_49">
<rect width="127.403" height="128" fill="white" transform="translate(0.416504 0.5)"/>
</clipPath>
</defs>
</svg>
