<svg width="129" height="129" viewBox="0 0 129 129" fill="none" xmlns="http://www.w3.org/2000/svg">
<path d="M33.1915 57.44V71.5L21.3072 78.5L21.1978 78.6V83.9L21.3072 84L38.0388 74.29V54.71H37.8795L33.1617 57.36V57.47" fill="#2F406A"/>
<path d="M9.38295 71.6L21.327 78.55V84L4.45605 74.25V54.75H4.62526L9.33319 57.5L9.38295 57.66V71.66" fill="#2379BD"/>
<path d="M9.38292 57.63L4.40625 54.75L21.2672 45L38.0386 54.71L33.1913 57.44L21.2473 50.61L9.36301 57.61" fill="#03AFEF"/>
<path d="M21.0981 69.99L20.9688 69.86V64.59L21.0981 64.52V64.39L25.5971 61.75H25.7364V67.19L21.0683 69.97" fill="#2F406A"/>
<path d="M16.3504 67.39V61.74H16.4798L21.0583 64.42V70L16.3105 67.39" fill="#2379BD"/>
<path d="M21.0182 58.9699L16.3501 61.7499L21.0978 64.4999L25.766 61.7599L21.0182 58.9399" fill="#03AFEF"/>
<path d="M15.2852 73.4399L15.1558 73.3099V68.0299L15.2852 67.9599V67.8299L19.7841 65.1899H19.9234V70.6299L15.2553 73.4099" fill="#2F406A"/>
<path d="M10.5376 70.8301V65.1801H10.667L15.2455 67.8601V73.4401L10.5376 70.8301Z" fill="#2379BD"/>
<path d="M15.2157 62.41L10.5376 65.18L15.2853 67.96L19.9535 65.22L15.2057 62.4" fill="#03AFEF"/>
<path d="M27.3286 73.5699L27.1992 73.4399V68.16L27.3286 68.0899V67.9599L31.8275 65.3199H31.9669V70.7599L27.2988 73.5399" fill="#2F406A"/>
<path d="M22.5809 70.9601V65.3101H22.7302L27.3088 67.9901V73.5701L22.561 70.9601" fill="#2379BD"/>
<path d="M27.2492 62.5L22.5811 65.28L27.3288 68.06L31.9969 65.32L27.2492 62.5Z" fill="#03AFEF"/>
<path d="M21.5161 77.01L21.3867 76.88V71.6L21.5161 71.53V71.4L26.015 68.76H26.1544V74.2L21.4863 76.98" fill="#2F406A"/>
<path d="M16.7583 74.4V68.76H16.8877L21.4662 71.44V77.02L16.7583 74.4Z" fill="#2379BD"/>
<path d="M21.4364 65.98L16.7583 68.76L21.516 71.5L26.1841 68.76L21.4364 65.98Z" fill="#03AFEF"/>
<path d="M21.0981 62.5L20.9688 62.37V57.11L21.0981 57.04V56.91L25.5971 54.27H25.7364V59.71L21.0981 62.5Z" fill="#2F406A"/>
<path d="M16.3504 59.91V54.26H16.4798L21.0583 56.94V62.5L16.3105 59.89" fill="#2379BD"/>
<path d="M21.0182 51.5L16.3501 54.28L21.0978 57.06L25.766 54.32L21.0182 51.5Z" fill="#03AFEF"/>
<path d="M15.2852 65.95L15.1558 65.82V60.5L15.2852 60.43V60.3L19.7841 57.66H19.9234V63.1L15.2553 65.88" fill="#2F406A"/>
<path d="M10.5376 63.3499V57.7H10.667L15.2455 60.38V65.9599L10.5376 63.3499Z" fill="#2379BD"/>
<path d="M15.2157 54.9301L10.5376 57.7001L15.2853 60.5001L19.9535 57.7601L15.2057 54.9401" fill="#03AFEF"/>
<path d="M27.3286 66.08L27.1992 65.95V60.68L27.3286 60.61V60.48L31.8275 57.84H31.9669V63.28L27.2988 66.06" fill="#2F406A"/>
<path d="M22.5811 63.5V57.83H22.7304L27.289 60.5V66.08L22.5811 63.5Z" fill="#2379BD"/>
<path d="M27.2492 55.0601L22.5811 57.8401L27.3288 60.6201L31.9969 57.8801L27.2492 55.0601Z" fill="#03AFEF"/>
<path d="M21.5161 69.5L21.3867 69.37V64.12L21.5161 64.05V63.92L26.015 61.28H26.1544V66.72L21.5161 69.5Z" fill="#2F406A"/>
<path d="M16.7583 66.92V61.27H16.8877L21.4662 63.95V69.5L16.7583 66.92Z" fill="#2379BD"/>
<path d="M21.4364 58.5L16.7583 61.27L21.506 64.05L26.1742 61.31L21.4364 58.5Z" fill="#03AFEF"/>
<path d="M46.439 57.0601C44.3488 57.0601 43.3037 57.8501 43.3037 59.4301C43.2579 59.7697 43.2998 60.1154 43.4253 60.4342C43.5508 60.7529 43.7557 61.0338 44.0203 61.2501C44.9357 61.7398 45.9239 62.0775 46.9466 62.2501C48.0698 62.4214 49.1389 62.849 50.072 63.5001C50.4042 63.8379 50.6585 64.2451 50.8167 64.6927C50.975 65.1402 51.0333 65.6173 50.9877 66.0901C50.9877 69.0701 49.4482 70.5601 46.3693 70.5601C45.0882 70.5353 43.8107 70.415 42.5473 70.2001L41.7908 70.1001L41.96 68.7601C43.3943 68.9746 44.8402 69.1015 46.2897 69.1401C48.3534 69.1401 49.3852 68.1667 49.3852 66.2201C49.4185 65.8998 49.3744 65.5762 49.2566 65.2767C49.1387 64.9773 48.9507 64.7108 48.7084 64.5001C47.9304 64.0388 47.0666 63.7427 46.1703 63.6301C44.9277 63.442 43.7416 62.9811 42.6966 62.2801C42.3213 61.9282 42.0311 61.4948 41.8482 61.013C41.6653 60.5311 41.5946 60.0136 41.6415 59.5001C41.6415 56.8934 43.1942 55.5901 46.2997 55.5901C47.5264 55.6055 48.7505 55.7091 49.9625 55.9001L50.6692 56.0101L50.5995 57.4101C49.2198 57.2194 47.831 57.1026 46.439 57.0601ZM60.6126 69.0901L61.2197 69.0301V70.2701C59.8687 70.4764 58.5052 70.59 57.1388 70.6101C56.5402 70.6714 55.9358 70.584 55.3787 70.3555C54.8216 70.1271 54.3288 69.7647 53.9438 69.3001C53.2215 68.0689 52.8915 66.6451 52.9983 65.2201C52.9983 61.5401 54.4548 59.7001 57.3678 59.7001C57.9517 59.6475 58.5399 59.7251 59.0905 59.9273C59.6411 60.1296 60.1404 60.4515 60.5528 60.8701C61.3376 61.9461 61.7087 63.2708 61.5979 64.6001L61.5482 65.7901H54.6306C54.5641 66.6949 54.7836 67.5978 55.2577 68.3701C55.5291 68.6732 55.8682 68.9073 56.2471 69.0533C56.6259 69.1993 57.0339 69.253 57.4374 69.2101C58.4792 69.2101 59.5376 69.1701 60.6126 69.0901ZM60.0452 64.5001C60.1295 63.5476 59.9136 62.5925 59.4281 61.7701C59.1818 61.4895 58.8733 61.2709 58.5276 61.132C58.1818 60.993 57.8084 60.9376 57.4374 60.9701C57.0484 60.9414 56.658 61.0021 56.2958 61.1477C55.9337 61.2932 55.6093 61.5197 55.3472 61.8101C54.7962 62.5938 54.526 63.5421 54.5808 64.5001H60.0452ZM67.5202 70.6001C66.9599 70.6493 66.3961 70.5624 65.8764 70.3465C65.3567 70.1307 64.8963 69.7923 64.5342 69.3601C63.8191 68.0833 63.5034 66.6197 63.6284 65.1601C63.4909 63.6695 63.8745 62.1773 64.7133 60.9401C65.4366 60.1001 66.7173 59.6801 68.5553 59.6801L72.0489 59.8901V75.0501H70.5062V69.9101C69.5754 70.3634 68.5546 70.5992 67.5202 70.6001ZM68.5155 61.0401C68.0236 60.9784 67.5241 61.0372 67.0597 61.2113C66.5952 61.3854 66.1795 61.6697 65.848 62.0401C65.3089 62.9933 65.0662 64.087 65.1513 65.1801C65.0735 66.2429 65.2725 67.3078 65.7286 68.2701C65.937 68.5856 66.2266 68.8386 66.5665 69.0024C66.9064 69.1661 67.2841 69.2344 67.6595 69.2001C68.4839 69.1985 69.3008 69.0425 70.0682 68.7401L70.4465 68.5901V61.1701C69.6037 61.0901 68.9601 61.0501 68.5155 61.0501V61.0401ZM81.5743 59.8901H83.1469V70.3901H81.5743V69.6601C80.6453 70.2552 79.5705 70.5805 78.4688 70.6001C77.0488 70.6001 76.1033 70.2301 75.6321 69.4901C75.0573 68.1979 74.8176 66.7805 74.9354 65.3701V59.8901H76.4782V65.3501C76.4032 66.3899 76.5386 67.4342 76.8763 68.4201C77.1417 68.9401 77.7423 69.2001 78.6779 69.2001C79.1526 69.1982 79.6248 69.1309 80.0813 69.0001C80.4539 68.9031 80.817 68.7726 81.1662 68.6101L81.5444 68.4201L81.5743 59.8901ZM93.2595 69.0901L93.8667 69.0301V70.2701C92.5156 70.4764 91.1522 70.59 89.7858 70.6101C89.1872 70.6714 88.5827 70.584 88.0256 70.3555C87.4685 70.1271 86.9758 69.7647 86.5908 69.3001C85.8684 68.0689 85.5385 66.6451 85.6452 65.2201C85.6452 61.5401 87.1017 59.7001 90.0147 59.7001C90.5953 59.6545 91.1787 59.7375 91.7238 59.9431C92.269 60.1487 92.7626 60.472 93.1699 60.8901C93.9547 61.9661 94.3258 63.2908 94.215 64.6201L94.1354 65.8201H87.2775C87.2111 66.7249 87.4305 67.6278 87.9046 68.4001C88.176 68.7032 88.5151 68.9373 88.894 69.0833C89.2729 69.2293 89.6808 69.283 90.0844 69.2401C91.1262 69.2201 92.1845 69.1701 93.2595 69.0901ZM92.6922 64.5001C92.7765 63.5476 92.5606 62.5925 92.0751 61.7701C91.8287 61.4895 91.5203 61.2709 91.1745 61.132C90.8288 60.993 90.4554 60.9376 90.0844 60.9701C89.6954 60.9414 89.305 61.0021 88.9428 61.1477C88.5806 61.2932 88.2562 61.5197 87.9942 61.8101C87.4537 62.5976 87.1941 63.5456 87.2576 64.5001H92.6922ZM96.8328 70.3901V55.3101H98.3755V70.3901H96.8328ZM101.531 57.5001V55.6901H103.093V57.5001H101.531ZM101.531 70.3701V59.8901H103.093V70.3901L101.531 70.3701ZM105.482 61.3001V59.8901H113.236V61.3001L107.383 68.9901H113.236V70.4001H105.482V68.9801L111.315 61.3001H105.482ZM122.672 69.0901L123.279 69.0301V70.2701C121.928 70.4764 120.564 70.59 119.198 70.6101C118.599 70.6714 117.995 70.584 117.438 70.3555C116.881 70.1271 116.388 69.7647 116.003 69.3001C115.281 68.0689 114.951 66.6451 115.057 65.2201C115.057 61.5401 116.514 59.7001 119.427 59.7001C120.007 59.6545 120.591 59.7375 121.136 59.9431C121.681 60.1487 122.175 60.472 122.582 60.8901C123.367 61.9661 123.738 63.2908 123.627 64.6201L123.548 65.8201H116.69C116.623 66.7249 116.843 67.6278 117.317 68.4001C117.588 68.7032 117.927 68.9373 118.306 69.0833C118.685 69.2293 119.093 69.283 119.497 69.2401C120.538 69.2201 121.597 69.1701 122.672 69.0901ZM122.104 64.5001C122.189 63.5476 121.973 62.5925 121.487 61.7701C121.241 61.4895 120.932 61.2709 120.587 61.132C120.241 60.993 119.867 60.9376 119.497 60.9701C119.107 60.9414 118.717 61.0021 118.355 61.1477C117.993 61.2932 117.668 61.5197 117.406 61.8101C116.873 62.6001 116.62 63.5479 116.69 64.5001H122.104Z" fill="#2F406A"/>
</svg>
