<svg width="129" height="129" viewBox="0 0 129 129" fill="none" xmlns="http://www.w3.org/2000/svg">
<g clip-path="url(#clip0_21_73)">
<path d="M13.9846 56.574C10.4731 56.574 8.28434 58.352 7.41342 61.875C8.73124 60.102 10.275 59.449 12.0168 59.898C13.0122 60.148 13.7358 60.875 14.5281 61.699C15.823 63.023 17.316 64.551 20.5787 64.551C24.0853 64.551 26.274 62.773 27.1449 59.25C25.8271 61.023 24.2833 61.676 22.5415 61.227C21.5462 60.977 20.8275 60.25 20.0303 59.426C18.7353 58.102 17.2423 56.574 13.9846 56.574ZM7.39053 64.5C3.87899 64.5 1.69025 66.273 0.819336 69.8C2.13716 68.023 3.68092 67.375 5.42275 67.824C6.41809 68.074 7.14169 68.801 7.93398 69.625C9.22891 70.949 10.7219 72.477 13.9846 72.477C17.4912 72.477 19.6799 70.699 20.5508 67.176C19.233 68.949 17.6892 69.602 15.9474 69.148C14.9521 68.898 14.2334 68.176 13.4362 67.352C12.1641 66.023 10.6711 64.5 7.39053 64.5Z" fill="url(#paint0_linear_21_73)"/>
<path d="M40.3104 63.25H38.0202V67.727C38.0202 68.926 38.7895 68.898 40.3094 68.824V70.625C37.2239 71 36.0066 70.148 36.0066 67.727V63.25H34.3105V61.324H36.0066V58.824L37.9973 58.227V61.324H40.2825V63.25H40.3104ZM49.0694 61.324H51.06V70.625H49.0694V69.273C48.3696 70.25 47.2778 70.852 45.8345 70.852C43.3193 70.852 41.2321 68.699 41.2321 65.949C41.2321 63.176 43.3193 61.051 45.8355 61.051C47.2778 61.051 48.3696 61.648 49.0704 62.625L49.0694 61.324ZM46.1301 68.949C47.7983 68.949 49.0704 67.699 49.0704 65.977C49.0704 64.25 47.7983 63 46.1301 63C44.4669 63 43.1949 64.25 43.1949 65.977C43.2228 67.699 44.4669 68.949 46.1311 68.949H46.1301ZM54.3924 59.926C53.6967 59.926 53.1253 59.324 53.1253 58.648C53.1253 57.949 53.6967 57.375 54.3924 57.375C55.0891 57.375 55.6644 57.949 55.6644 58.648C55.6873 59.324 55.0881 59.926 54.3924 59.926ZM53.3971 70.625V61.325H55.3877V70.625H53.3971ZM57.7009 70.625V57.051H59.6916V70.625H57.7009ZM72.7095 61.325H74.8246L71.9123 70.625H69.9445L68.0275 64.352L66.0876 70.625H64.1248L61.2124 61.325H63.3265L65.1181 67.75L67.059 61.324H68.976L70.8881 67.75L72.7095 61.325ZM77.2851 59.925C76.5893 59.925 76.018 59.325 76.018 58.648C76.018 57.949 76.5893 57.375 77.2851 57.375C77.9818 57.375 78.5571 57.949 78.5571 58.648C78.58 59.324 78.0087 59.926 77.2851 59.926V59.925ZM76.2897 70.625V61.325H78.2804V70.625H76.2897ZM85.4737 61.075C87.538 61.075 89.031 62.5 89.031 64.898V70.625H87.0403V65.125C87.0403 63.699 86.2202 62.977 84.976 62.977C83.6582 62.977 82.6121 63.75 82.6121 65.648V70.648H80.6214V61.352H82.6121V62.551C83.2342 61.551 84.2295 61.074 85.4737 61.074V61.075ZM98.5374 57.602H100.528V70.625H98.5374V69.273C97.8407 70.25 96.7448 70.852 95.3026 70.852C92.7864 70.852 90.6992 68.699 90.6992 65.949C90.6992 63.176 92.7864 61.051 95.3026 61.051C96.7448 61.051 97.8407 61.648 98.5374 62.625V57.602ZM95.6012 68.949C97.2654 68.949 98.5374 67.699 98.5374 65.977C98.5374 64.25 97.2654 63 95.6012 63C93.934 63 92.662 64.25 92.662 65.977C92.662 67.699 93.934 68.949 95.6022 68.949H95.6012ZM107.219 70.875C104.436 70.875 102.321 68.727 102.321 65.977C102.321 63.199 104.408 61.074 107.219 61.074C109.039 61.074 110.606 62.024 111.352 63.477L109.633 64.477C109.237 63.602 108.316 63.051 107.196 63.051C105.556 63.051 104.334 64.301 104.334 65.977C104.334 67.648 105.578 68.898 107.196 68.898C108.316 68.898 109.209 68.324 109.661 67.477L111.375 68.449C110.629 69.926 109.039 70.875 107.219 70.875ZM114.712 63.875C114.712 65.575 119.688 64.551 119.688 68C119.688 69.852 118.071 70.875 116.08 70.875C114.237 70.875 112.895 70.023 112.297 68.699L114.016 67.699C114.31 68.551 115.057 69.051 116.08 69.051C116.974 69.051 117.647 68.75 117.647 68C117.647 66.352 112.67 67.273 112.67 63.95C112.67 62.2 114.163 61.102 116.052 61.102C117.573 61.102 118.84 61.801 119.49 63.023L117.794 63.977C117.472 63.25 116.827 62.926 116.052 62.926C115.334 62.898 114.712 63.226 114.712 63.875ZM123.246 63.875C123.246 65.575 128.222 64.551 128.222 68C128.222 69.852 126.605 70.875 124.614 70.875C122.771 70.875 121.429 70.023 120.832 68.699L122.55 67.699C122.848 68.551 123.595 69.051 124.614 69.051C125.508 69.051 126.181 68.75 126.181 68C126.181 66.352 121.204 67.273 121.204 63.95C121.204 62.2 122.697 61.102 124.591 61.102C126.107 61.102 127.374 61.801 128.024 63.023L126.332 63.977C126.006 63.25 125.361 62.926 124.59 62.926C123.868 62.898 123.246 63.226 123.246 63.875Z" fill="#2D3748"/>
</g>
<defs>
<linearGradient id="paint0_linear_21_73" x1="0.114962" y1="61.6156" x2="22.9136" y2="74.6994" gradientUnits="userSpaceOnUse">
<stop stop-color="#2298BD"/>
<stop offset="1" stop-color="#0ED7B5"/>
</linearGradient>
<clipPath id="clip0_21_73">
<rect width="127.403" height="128" fill="white" transform="translate(0.819336 0.5)"/>
</clipPath>
</defs>
</svg>
