<svg width="129" height="129" viewBox="0 0 129 129" fill="none" xmlns="http://www.w3.org/2000/svg">
<path d="M23.3696 47.5H122.575V121.17H23.3696V47.5Z" fill="white"/>
<path d="M2.29834 64.41V121.91C2.29834 124.671 4.53692 126.91 7.29834 126.91H121.715C124.477 126.91 126.715 124.671 126.715 121.91V6.91004C126.715 4.14861 124.477 1.91003 121.715 1.91003H7.29834C4.53692 1.91003 2.29834 4.14861 2.29834 6.91003V64.41ZM102.558 59.4203C102.558 59.4151 102.563 59.4112 102.568 59.4124C105.544 60.1083 108.249 61.6731 110.342 63.91C111.189 64.7962 111.955 65.7563 112.631 66.7783C113.111 67.5049 112.989 68.2138 112.278 68.7175C110.55 69.9428 107.059 72.2769 104.678 73.76C104.559 73.84 104.081 73.32 103.554 72.53C102.956 71.4937 102.107 70.6264 101.085 70.0091C100.063 69.3918 98.9024 69.0447 97.7111 69C93.9388 68.74 91.5101 70.73 91.53 74C91.4988 74.8142 91.6844 75.6219 92.0675 76.34C92.8937 78.07 94.4364 79.1 99.2737 81.2C108.182 85.05 111.994 87.59 114.363 91.2C117.011 95.2 117.598 101.66 115.806 106.44C113.816 111.64 108.938 115.17 102.041 116.34C98.8904 116.703 95.7073 116.669 92.5652 116.24C87.7494 115.442 83.3134 113.119 79.9045 109.61C79.1057 108.724 77.7783 106.844 77.0967 105.707C76.7492 105.128 76.9398 104.566 77.5224 104.224C77.6187 104.168 77.716 104.113 77.8143 104.06L82.4227 101.5L84.8399 100.093C85.4902 99.7145 86.3226 99.9057 86.7425 100.53C88.0023 102.341 89.6056 103.883 91.4604 105.07C95.4417 107.17 100.876 106.88 103.564 104.45C104.466 103.56 105.029 102.379 105.154 101.115C105.28 99.8505 104.96 98.5819 104.25 97.53C103.255 96.14 101.264 94.97 95.7005 92.53C89.2806 89.75 86.5136 88.03 83.9854 85.29C82.4071 83.4819 81.2419 81.3487 80.5714 79.04C80.0713 76.4025 79.9974 73.7012 80.3524 71.04C81.6762 64.81 86.3244 60.46 93.1126 59.17C96.2531 58.7796 99.4341 58.8667 102.549 59.4283C102.554 59.4292 102.558 59.4254 102.558 59.4203ZM73.3552 64.65V64.77C73.3552 67.5315 71.1167 69.77 68.3552 69.77H62.201C59.4395 69.77 57.201 72.0086 57.201 74.77V111C57.201 113.761 54.9624 116 52.201 116H50.7447C47.9832 116 45.7447 113.761 45.7447 111V74.76C45.7447 71.9986 43.5061 69.76 40.7447 69.76H34.5506C31.7892 69.76 29.5506 67.5215 29.5506 64.76C29.5165 63.5962 29.5236 62.4317 29.5718 61.2687C29.617 60.1786 30.2547 59.552 31.3457 59.5392C34.6601 59.5 42.5198 59.5 51.5674 59.5H68.3532C71.092 59.5 73.3211 61.7034 73.3528 64.4421L73.3552 64.65Z" fill="#007ACC"/>
</svg>
