<svg width="30" height="30" viewBox="0 0 30 30" fill="none" xmlns="http://www.w3.org/2000/svg">
<path d="M25 22.5C25.6904 22.5 26.25 23.0596 26.25 23.75C26.25 24.3911 25.7675 24.9194 25.1458 24.9916L25 25H5C4.30965 25 3.75 24.4404 3.75 23.75C3.75 23.1089 4.23256 22.5806 4.85422 22.5084L5 22.5H25ZM25 13.75C25.6904 13.75 26.25 14.3096 26.25 15C26.25 15.6904 25.6904 16.25 25 16.25H5C4.30965 16.25 3.75 15.6904 3.75 15C3.75 14.3096 4.30965 13.75 5 13.75H25ZM25 5C25.6904 5 26.25 5.55965 26.25 6.25C26.25 6.94035 25.6904 7.5 25 7.5H5C4.30965 7.5 3.75 6.94035 3.75 6.25C3.75 5.55965 4.30965 5 5 5H25Z" fill="#9B9B9B"/>
</svg>