<svg width="30" height="30" viewBox="0 0 30 30" fill="none" xmlns="http://www.w3.org/2000/svg">
<path fill-rule="evenodd" clip-rule="evenodd" d="M14.9999 16.7679L22.0709 23.839C22.5591 24.3271 23.3506 24.3271 23.8387 23.839C24.3268 23.3508 24.3268 22.5594 23.8387 22.0711L16.7677 15.0001L23.8387 7.92907C24.3268 7.44092 24.3268 6.64945 23.8387 6.1613C23.3506 5.67314 22.5591 5.67314 22.0709 6.1613L14.9999 13.2324L7.9288 6.16128C7.44065 5.67313 6.64918 5.67313 6.16103 6.16128C5.67288 6.64944 5.67288 7.44089 6.16103 7.92905L13.2321 15.0001L6.16103 22.0713C5.67288 22.5594 5.67288 23.3508 6.16103 23.839C6.64918 24.3271 7.44065 24.3271 7.9288 23.839L14.9999 16.7679Z" fill="#9B9B9B"/>
</svg>