<svg width="39" height="35" viewBox="0 0 39 35" fill="none" xmlns="http://www.w3.org/2000/svg">
<g clip-path="url(#clip0_45_374)">
<path d="M12.2531 3.6855C13.3323 4.02107 14.6673 4.55589 15.9604 5.35318C17.5275 4.98381 19.2009 4.78516 20.935 4.78516C22.6672 4.78516 24.339 4.98341 25.9048 5.35206C27.1976 4.55517 28.5323 4.02062 29.6112 3.68523C30.827 3.3073 32.5599 2.69362 33.5887 3.73568C34.2872 4.44315 34.4605 5.63051 34.585 6.53575C34.7242 7.54732 34.7567 8.86588 34.3905 10.1732C35.7912 11.827 36.6363 13.8011 36.6363 15.9505C36.6363 19.2079 34.7066 22.0353 31.8506 23.9937C30.536 24.8951 29.0077 25.6282 27.3317 26.1569C27.7058 26.939 27.9134 27.8029 27.9134 28.7109V33.4961C27.9134 34.377 27.1321 35.0912 26.1688 35.0912H15.7012C14.7377 35.0912 13.9566 34.377 13.9566 33.4961V31.9149C12.2899 32.1015 10.8932 31.9365 9.70422 31.4753C8.46244 30.9936 7.59692 30.2465 6.94639 29.5327C6.32933 28.8558 5.6566 27.3311 4.6819 27.0341C3.76784 26.7554 3.27384 25.8521 3.57852 25.0165C3.88321 24.1807 4.87121 23.7291 5.78527 24.0076C6.94678 24.3616 7.70307 25.1275 8.22235 25.7419C9.05811 26.7307 9.74093 28.0243 11.0669 28.5385C11.6122 28.75 12.4133 28.8904 13.6639 28.7328L13.9567 28.6794C13.9614 27.7828 14.1684 26.9299 14.5381 26.1569C12.8622 25.6282 11.3338 24.8951 10.0193 23.9937C7.16316 22.0353 5.23363 19.2079 5.23363 15.9505C5.23363 13.8036 6.07668 11.8315 7.47443 10.179C7.10686 8.87063 7.13893 7.55065 7.27806 6.53808C7.28085 6.51774 7.28364 6.49732 7.28645 6.47683C7.4136 5.54934 7.56342 4.45631 8.27448 3.73586C9.30307 2.69373 11.0374 3.30752 12.2531 3.6855Z" fill="#9B9B9B"/>
</g>
<defs>
<clipPath id="clip0_45_374">
<rect width="38.2812" height="35" fill="white"/>
</clipPath>
</defs>
</svg>