<svg width="35" height="35" viewBox="0 0 35 35" fill="none" xmlns="http://www.w3.org/2000/svg">
<path fill-rule="evenodd" clip-rule="evenodd" d="M26.25 4.375C28.6663 4.375 30.625 6.33376 30.625 8.75V26.25C30.625 28.6663 28.6663 30.625 26.25 30.625H8.75C6.33376 30.625 4.375 28.6663 4.375 26.25V8.75C4.375 6.33376 6.33376 4.375 8.75 4.375H26.25ZM11.6667 14.5833C10.8613 14.5833 10.2083 15.2362 10.2083 16.0417V23.3333C10.2083 24.1388 10.8613 24.7917 11.6667 24.7917C12.4721 24.7917 13.125 24.1388 13.125 23.3333V16.0417C13.125 15.2362 12.4721 14.5833 11.6667 14.5833ZM16.0417 13.125C15.2362 13.125 14.5833 13.7779 14.5833 14.5833V23.3333C14.5833 24.1388 15.2362 24.7917 16.0417 24.7917C16.8471 24.7917 17.5 24.1388 17.5 23.3333V17.9955C17.9446 17.4934 18.6969 16.9051 19.5319 16.548C20.0172 16.3403 20.7474 16.2574 21.2554 16.417C21.4775 16.4869 21.6042 16.585 21.6825 16.6908C21.7585 16.7937 21.875 17.0198 21.875 17.5V23.3333C21.875 24.1386 22.5279 24.7917 23.3333 24.7917C24.1388 24.7917 24.7917 24.1386 24.7917 23.3333V17.5C24.7917 16.5218 24.5435 15.654 24.0272 14.9561C23.513 14.2611 22.8194 13.8514 22.1301 13.6347C20.8151 13.2212 19.3578 13.4501 18.3848 13.8664C18.076 13.9984 17.7717 14.1522 17.4768 14.3227C17.3539 13.6416 16.7581 13.125 16.0417 13.125ZM11.6667 10.2083C10.8613 10.2083 10.2083 10.8613 10.2083 11.6667C10.2083 12.4721 10.8613 13.125 11.6667 13.125C12.4721 13.125 13.125 12.4721 13.125 11.6667C13.125 10.8613 12.4721 10.2083 11.6667 10.2083Z" fill="#9B9B9B"/>
</svg>