<svg width="35" height="35" viewBox="0 0 35 35" fill="none" xmlns="http://www.w3.org/2000/svg">
<path d="M3.01552 7.99464L15.9594 20.9385C16.7602 21.7394 18.0277 21.7895 18.8868 21.0887L19.0529 20.9385L31.9872 8.00426C32.0291 8.16297 32.0579 8.32696 32.0724 8.49503L32.0834 8.75004V26.25C32.0834 27.7877 30.8936 29.0474 29.3844 29.1587L29.1667 29.1667H5.83341C4.2958 29.1667 3.03609 27.9769 2.92475 26.4677L2.91675 26.25V8.75004C2.91675 8.57588 2.93201 8.40528 2.96128 8.23951L3.01552 7.99464ZM29.1667 5.83337C29.3433 5.83337 29.5162 5.84905 29.684 5.8791L29.9319 5.93477L17.5062 18.3605L5.07787 5.93219C5.23852 5.88922 5.40463 5.85962 5.57495 5.84467L5.83341 5.83337H29.1667Z" fill="#9B9B9B"/>
</svg>